<?xml version="1.0" encoding="UTF-8"?>
<svg version="1.1" xmlns="http://www.w3.org/2000/svg" width="2000" height="2000">
<path d="M0 0 C3.04802047 3.04802047 4.96540355 6.33122072 7.09765625 10.05859375 C8.53091642 12.62570825 8.53091642 12.62570825 10.5 15.4375 C12.24017263 18.10213934 13.74820224 20.76075901 15.25 23.5625 C17.43892522 27.62920645 19.74563701 31.5800359 22.1875 35.5 C25.45673842 40.75678677 28.59875161 46.07283175 31.6875 51.4375 C35.76966917 58.52577339 39.89577213 65.58607947 44.0625 72.625 C44.61019043 73.55046631 45.15788086 74.47593262 45.72216797 75.42944336 C46.80227098 77.25415063 47.88250893 79.07877803 48.96289062 80.90332031 C51.2498186 84.76668848 53.53347222 88.63196611 55.8125 92.5 C56.21645996 93.18545898 56.62041992 93.87091797 57.03662109 94.57714844 C59.62855644 98.98673561 62.16820324 103.42361099 64.6875 107.875 C67.06229355 112.05597456 69.51483909 116.14946112 72.125 120.1875 C74.44956115 123.80466609 76.69062631 127.44724808 78.8125 131.1875 C79.28300781 132.01636719 79.75351563 132.84523438 80.23828125 133.69921875 C83.91611922 141.86333584 83.92289277 150.05693071 84.125 158.875 C84.16311425 160.26823509 84.20144853 161.66146417 84.23999023 163.0546875 C84.64843739 178.86680288 84.5960416 194.68416481 84.5 210.5 C85.40878906 210.64695312 85.40878906 210.64695312 86.3359375 210.796875 C92.80959345 211.9521736 98.48378879 213.8849991 104.5 216.5 C106.10875 217.18449219 106.10875 217.18449219 107.75 217.8828125 C112.55857953 219.93289886 117.35687625 222.00660043 122.15625 224.078125 C127.39402711 226.33264645 132.62940423 228.57369466 137.93359375 230.66796875 C141.89620283 232.23507032 145.7223889 233.96519053 149.5625 235.8125 C154.97608878 238.38562553 160.44309671 240.75399544 166 243 C172.10846024 245.47105549 178.09494103 248.11939427 184.046875 250.9453125 C188.16070316 252.89304855 192.30834041 254.72642462 196.5 256.5 C201.38490367 258.56838264 206.20422931 260.73570847 211 263 C218.09334588 266.3478457 225.27752425 269.4394759 232.5 272.5 C238.13559952 274.88941804 243.60234679 277.54698474 249.0625 280.3125 C255.1442015 283.38941109 261.2914885 286.2240511 267.55102539 288.91845703 C276.14163445 292.62023049 284.65178332 296.52772887 293 300.75 C295.84430947 302.17215474 298.70193542 303.44707559 301.62628174 304.69009399 C304.6424345 305.993812 307.61359813 307.39312667 310.5859375 308.79296875 C311.24082153 309.10019867 311.89570557 309.40742859 312.57043457 309.72396851 C314.67255982 310.71053368 316.77386373 311.69883045 318.875 312.6875 C321.0458683 313.70839366 323.21678373 314.729187 325.38772583 315.74992371 C326.80973732 316.41855598 328.23167412 317.08734713 329.65353394 317.75630188 C333.43974621 319.53646806 337.23081105 321.30502387 341.03125 323.0546875 C363.77462451 333.53700988 363.77462451 333.53700988 367.5 341.5 C369.41871462 347.08952677 369.78298134 352.0031747 369.74888897 357.88727665 C369.75149625 358.81709639 369.75410354 359.74691612 369.75678983 360.70491222 C369.7630946 363.82589115 369.75512358 366.94666923 369.74723816 370.06764221 C369.74882623 372.325674 369.7512898 374.58370532 369.75455457 376.8417353 C369.76097534 383.05102014 369.75489424 389.26023989 369.74679029 395.46952045 C369.74089344 401.47678185 369.74438371 407.48403305 369.7476195 413.49129465 C369.75389443 425.78049977 369.75072322 438.06968569 369.74202538 450.35888863 C369.73341251 462.53061666 369.72850518 474.70233608 369.72869301 486.87406731 C369.72870448 488.00953695 369.72870448 488.00953695 369.72871618 489.16794538 C369.72875709 492.24069891 369.7288227 495.31345243 369.72892199 498.38620596 C369.72982818 527.2146554 369.71988138 556.04309169 369.70449232 584.87153656 C369.69086696 610.49045012 369.6846311 636.10935434 369.68530273 661.72827148 C369.68534315 663.37337764 369.68538351 665.0184838 369.68542381 666.66358996 C369.68544416 667.47689495 369.68546452 668.29019993 369.68548548 669.12815052 C369.68558628 673.22212223 369.68567686 677.31609394 369.68575573 681.41006565 C369.68577244 682.21772377 369.68578916 683.02538188 369.68580638 683.85751449 C369.68617146 705.25805534 369.6816339 726.65859502 369.67542917 748.0591349 C369.67520889 748.82028227 369.67498862 749.58142964 369.67476168 750.36564208 C369.67387344 753.42645863 369.67298504 756.48727517 369.67207072 759.54809171 C369.66890982 770.20151915 369.66740134 780.85494567 369.66695923 791.50837354 C369.66636242 805.23573934 369.66237365 818.96309742 369.65252777 832.69045991 C369.6478607 839.31184977 369.64486644 845.93323235 369.64612198 852.55462456 C369.64721473 858.61110183 369.6437126 864.66755808 369.63647345 870.72403096 C369.63465603 872.91974094 369.63453379 875.11545307 369.63624074 877.31116313 C369.63829868 880.28698873 369.6342537 883.26274495 369.62863445 886.23856449 C369.63171743 887.5282854 369.63171743 887.5282854 369.63486269 888.84406129 C369.61982095 893.18133213 369.33900385 897.22583275 368.5 901.5 C368.40275618 902.86892497 368.33685269 904.24064003 368.31054688 905.61276245 C368.29378906 906.37410995 368.27703125 907.13545746 368.25976562 907.9198761 C368.23946289 909.1445887 368.23946289 909.1445887 368.21875 910.39404297 C368.19167969 911.70813896 368.19167969 911.70813896 368.1640625 913.04878235 C368.10532833 915.94651943 368.05272523 918.84433539 368 921.7421875 C367.95941829 923.78688406 367.91839461 925.8315719 367.87695312 927.87625122 C367.76839536 933.27914722 367.66476974 938.68212577 367.5625 944.08514404 C367.46038108 949.46044865 367.35544611 954.83569726 367.25 960.2109375 C367.22947697 961.25786648 367.20895393 962.30479546 367.18780899 963.38344955 C367.02551906 971.61399834 366.85474351 979.84435273 366.67730331 988.07458878 C366.56416167 993.34270904 366.46117617 998.61081467 366.37064362 1003.87936974 C366.31766077 1006.79202733 366.25269215 1009.70431886 366.18389893 1012.616642 C366.14288694 1014.49781006 366.11619134 1016.37927431 366.09033203 1018.26071167 C365.74006539 1031.79490475 362.28119344 1044.55176916 358.5 1057.5 C358.26200684 1058.33998535 358.02401367 1059.1799707 357.77880859 1060.04541016 C356.4875539 1064.58100363 355.05508114 1069.04636571 353.5 1073.5 C353.28021484 1074.1305127 353.06042969 1074.76102539 352.83398438 1075.41064453 C348.01579251 1089.08820185 342.72054194 1103.14156834 334.82421875 1115.359375 C333.40802523 1117.57146608 333.40802523 1117.57146608 332.10546875 1120.3359375 C330.32773053 1123.83950917 328.29842254 1127.10940533 326.125 1130.375 C325.70162354 1131.01268311 325.27824707 1131.65036621 324.84204102 1132.30737305 C319.90815768 1139.58743866 314.31179256 1146.32360595 308.64819336 1153.04223633 C307.40771473 1154.516146 307.40771473 1154.516146 306.5 1156.5 C305.84 1156.5 305.18 1156.5 304.5 1156.5 C304.26297363 1157.06227295 304.02594727 1157.6245459 303.78173828 1158.20385742 C302.20610699 1161.02648833 300.28425642 1162.95772006 297.9921875 1165.23828125 C297.08726562 1166.14126953 296.18234375 1167.04425781 295.25 1167.97460938 C294.77691406 1168.4414917 294.30382813 1168.90837402 293.81640625 1169.3894043 C292.39541817 1170.79234121 290.98279557 1172.20373493 289.5703125 1173.61523438 C284.37298456 1178.77952845 279.08673667 1183.76055183 273.5 1188.5 C272.45572624 1189.40103827 271.41145523 1190.30207974 270.3671875 1191.203125 C264.2612224 1196.40036945 258.0714536 1201.44675109 251.74072266 1206.36743164 C247.09593904 1209.99273884 242.58981701 1213.76056269 238.11108398 1217.58813477 C234.97342432 1220.2659939 231.79992309 1222.8813617 228.5625 1225.4375 C222.0480123 1230.60233038 215.78541106 1236.06111553 209.5 1241.5 C208.67628906 1242.20898438 207.85257813 1242.91796875 207.00390625 1243.6484375 C204.23290451 1246.04752785 201.56123031 1248.43723893 199 1251.0625 C196.32673029 1253.66893797 193.50679617 1255.81096725 190.49609375 1258.0078125 C188.63630737 1259.3981029 186.88001443 1260.85598996 185.125 1262.375 C182.5 1264.5 182.5 1264.5 180.5 1264.5 C180.5 1265.16 180.5 1265.82 180.5 1266.5 C179.0234375 1267.8046875 179.0234375 1267.8046875 176.875 1269.375 C172.62698594 1272.57940745 168.58173649 1275.95532135 164.5625 1279.4375 C160.59609197 1282.86605424 156.61669393 1286.25140627 152.5 1289.5 C146.61562069 1294.15164518 140.96634556 1299.07051377 135.28466797 1303.96533203 C128.06847351 1310.17066697 120.80376664 1316.30235672 113.34765625 1322.21875 C104.30490323 1329.46287588 95.38853805 1336.86874334 86.5625 1344.375 C82.67177701 1347.67771654 78.76728377 1350.96152638 74.8125 1354.1875 C74.02488281 1354.83074219 73.23726562 1355.47398438 72.42578125 1356.13671875 C70.5 1357.5 70.5 1357.5 68.5 1357.5 C68.5 1358.16 68.5 1358.82 68.5 1359.5 C66.69921875 1361.12890625 66.69921875 1361.12890625 64.1875 1363.0625 C59.28312073 1366.87546248 54.50442215 1370.81446319 49.75 1374.8125 C47.5 1376.5 47.5 1376.5 45.5 1376.5 C45.5 1377.16 45.5 1377.82 45.5 1378.5 C44.05859375 1379.8046875 44.05859375 1379.8046875 41.9375 1381.375 C38.21211576 1384.18672197 34.54180116 1387.05079573 30.90673828 1389.97753906 C28.95032396 1391.55217851 26.98768677 1393.11874349 25.0234375 1394.68359375 C23.01376155 1396.28487219 21.01943619 1397.89741864 19.0390625 1399.53515625 C13.31412291 1404.13999896 8.24623142 1405.88046758 0.875 1405.3125 C-3.04707762 1404.76664384 -5.96457453 1403.26771273 -9.5 1401.5 C-12.07169764 1401.63901068 -14.08015276 1402.33273018 -16.4609375 1403.28125 C-22.91470405 1405.72688785 -28.79319917 1406.43120402 -35.33447266 1403.74731445 C-40.36647976 1401.38084868 -44.5018849 1398.36888964 -48.75 1394.8125 C-50.06914499 1393.7329468 -51.38947015 1392.65483418 -52.7109375 1391.578125 C-53.67725098 1390.78825195 -53.67725098 1390.78825195 -54.66308594 1389.98242188 C-58.13135791 1387.18346555 -61.72064724 1384.54889056 -65.296875 1381.890625 C-69.09313158 1379.05732131 -72.86168757 1376.18934518 -76.625 1373.3125 C-77.33849609 1372.76779053 -78.05199219 1372.22308105 -78.78710938 1371.66186523 C-82.61325391 1368.73401441 -86.41979721 1365.7837897 -90.203125 1362.80078125 C-100.85448475 1354.3901504 -100.85448475 1354.3901504 -112.23828125 1347.02734375 C-115.01850638 1345.14985148 -117.1575485 1342.89692711 -119.5 1340.5 C-125.59162086 1335.23816724 -131.97568577 1330.33219022 -138.37207031 1325.44921875 C-143.37154402 1321.62384157 -148.28391513 1317.69431648 -153.19213867 1313.75292969 C-157.92501957 1309.95385497 -162.70171151 1306.21608744 -167.5 1302.5 C-175.00118239 1296.68976619 -182.39721959 1290.79799881 -189.60449219 1284.62597656 C-193.49169898 1281.31256194 -197.4670144 1278.13379897 -201.5 1275 C-206.64958182 1270.99855894 -211.65540278 1266.86512877 -216.60766602 1262.62280273 C-220.47170296 1259.32887918 -224.42548316 1256.17384862 -228.4375 1253.0625 C-233.98866849 1248.75689529 -239.34130087 1244.26195992 -244.64086914 1239.65112305 C-247.79679828 1236.91688938 -250.98883153 1234.32520289 -254.375 1231.875 C-255.921875 1230.699375 -255.921875 1230.699375 -257.5 1229.5 C-257.5 1228.84 -257.5 1228.18 -257.5 1227.5 C-258.02335938 1227.28472656 -258.54671875 1227.06945313 -259.0859375 1226.84765625 C-262.45629796 1224.96614434 -265.23312063 1222.46642619 -268.125 1219.9375 C-268.74455566 1219.4010083 -269.36411133 1218.8645166 -270.00244141 1218.31176758 C-274.47514116 1214.4272157 -278.89423171 1210.48498291 -283.28125 1206.50390625 C-285.29308393 1204.68688018 -287.32660434 1202.90055608 -289.375 1201.125 C-308.16328572 1184.7376514 -308.16328572 1184.7376514 -312.5 1179.5 C-312.5 1178.84 -312.5 1178.18 -312.5 1177.5 C-313.49 1177.17 -314.48 1176.84 -315.5 1176.5 C-317.1484375 1174.609375 -317.1484375 1174.609375 -318.875 1172.25 C-321.53593947 1168.7076945 -324.31897532 1165.59266289 -327.5 1162.5 C-330.5 1158.87931034 -330.5 1158.87931034 -330.5 1156.5 C-331.16 1156.5 -331.82 1156.5 -332.5 1156.5 C-333.73471527 1154.79809517 -334.96306121 1153.0908527 -336.14453125 1151.3515625 C-337.55451983 1149.30171511 -337.55451983 1149.30171511 -340 1147.1875 C-342.9171497 1144.05156407 -344.36418414 1140.90466586 -346.17578125 1137.05859375 C-347.81313365 1133.89497775 -349.81974109 1131.2337217 -352.0703125 1128.484375 C-353.88766583 1125.9619283 -355.14019979 1123.29495459 -356.5 1120.5 C-357.39842468 1118.850564 -358.29709378 1117.20125163 -359.20166016 1115.55517578 C-367.09216998 1101.10682768 -373.35269913 1086.12440459 -378.5 1070.5 C-378.7175293 1069.84854004 -378.93505859 1069.19708008 -379.15917969 1068.52587891 C-383.96065979 1054.06695887 -387.61298828 1039.30422938 -390.625 1024.375 C-390.77138916 1023.64958008 -390.91777832 1022.92416016 -391.06860352 1022.17675781 C-391.36761532 1020.64696088 -391.65605324 1019.11506777 -391.93512344 1017.58150768 C-392.35481484 1015.29201228 -392.79287497 1013.00586843 -393.24061203 1010.72169209 C-395.38021288 999.36481637 -395.91989825 988.42383284 -395.85644531 976.8894043 C-395.85723869 974.99966334 -395.85934359 973.10992257 -395.86264038 971.22018433 C-395.8677206 966.14347586 -395.85434539 961.06697439 -395.83711338 955.99029899 C-395.82192134 950.63903087 -395.82324765 945.28776373 -395.82244873 939.93647766 C-395.81877049 930.95183855 -395.80388026 921.96727648 -395.78125 912.98266602 C-395.7524102 901.51065697 -395.74202513 890.03870989 -395.7375679 878.56666851 C-395.73356201 868.63021171 -395.72106457 858.69376793 -395.70722103 848.75732064 C-395.70315732 845.59933455 -395.70021395 842.44134889 -395.69742584 839.28336143 C-395.69246402 834.28697707 -395.68214897 829.29062841 -395.66798782 824.29426193 C-395.66353714 822.47926851 -395.6606438 820.66427035 -395.65958023 818.84927177 C-395.65382118 810.80973394 -395.60608326 802.79352239 -395.13887441 794.76599085 C-394.11800811 777.12093563 -394.34586407 759.43890803 -394.34336853 741.77118385 C-394.34150917 736.51772956 -394.33389207 731.26428324 -394.32688904 726.01083374 C-394.31542578 716.92918309 -394.3071496 707.84753424 -394.30076981 698.76587868 C-394.29039195 684.40792766 -394.26981878 670.04999934 -394.24765015 655.69206238 C-394.24017299 650.76985271 -394.23275901 645.84764295 -394.22536278 640.92543316 C-394.22258693 639.08100571 -394.22258693 639.08100571 -394.219755 637.1993171 C-394.19887823 623.24022075 -394.18002217 609.28112193 -394.16210938 595.32202148 C-394.16047119 594.04756515 -394.15883301 592.77310882 -394.15714519 591.4600326 C-394.13080826 570.76554271 -394.11218793 550.07105104 -394.09551747 529.37655143 C-394.0780999 508.09768383 -394.04926676 486.81885122 -394.0106281 465.54001158 C-393.98724603 452.42953117 -393.97323516 439.31910776 -393.97130047 426.20860633 C-393.96919188 417.23439562 -393.95626931 408.26024179 -393.93482114 399.28605662 C-393.92279309 394.11008253 -393.91564047 388.93422135 -393.92153358 383.75823402 C-393.92683381 379.01829242 -393.91833637 374.27858107 -393.89897721 369.53867789 C-393.89440776 367.82649356 -393.8948638 366.11428668 -393.90092559 364.40210698 C-393.96730882 343.81070826 -393.96730882 343.81070826 -388.1875 336.625 C-385.37016748 334.39734173 -382.5534937 332.39316609 -379.5 330.5 C-378.406875 329.819375 -377.31375 329.13875 -376.1875 328.4375 C-373.65344647 327.00520887 -371.21986239 326.03251376 -368.4375 325.1875 C-364.46887095 323.95234755 -360.92644761 322.26373014 -357.234375 320.359375 C-349.95376483 316.6582092 -342.53403335 313.32795802 -335.05645752 310.04730225 C-331.13168992 308.32484542 -327.21212528 306.59064751 -323.29296875 304.85546875 C-322.48778809 304.49906311 -321.68260742 304.14265747 -320.85302734 303.77545166 C-310.6421927 299.24586963 -300.49358979 294.57993296 -290.34887695 289.90454102 C-282.80678508 286.43376552 -275.23542138 283.0670249 -267.59472656 279.81762695 C-259.55599797 276.39501586 -251.63387115 272.72919101 -243.71316528 269.04284668 C-241.83712607 268.16987626 -239.96049083 267.29819769 -238.08374023 266.42675781 C-230.57028572 262.93702443 -230.57028572 262.93702443 -223.07421875 259.41015625 C-215.2428705 255.70790596 -207.32399206 252.28702442 -199.34619141 248.9140625 C-193.08991285 246.24435252 -187.00914623 243.33092998 -180.95410156 240.23632812 C-176.3562741 237.8963833 -171.71413354 235.83141017 -166.93359375 233.8984375 C-162.390873 232.04827364 -157.88318605 230.12004286 -153.375 228.1875 C-152.47676514 227.80263428 -151.57853027 227.41776855 -150.65307617 227.02124023 C-143.20130627 223.81925061 -135.78575827 220.53960382 -128.3828125 217.2265625 C-127.7321582 216.93813477 -127.08150391 216.64970703 -126.41113281 216.35253906 C-125.12998969 215.7810327 -123.85327114 215.19950969 -122.58105469 214.60839844 C-119.2266979 213.08531025 -117.26837532 212.5 -113.5 212.5 C-113.50999275 211.2554454 -113.50999275 211.2554454 -113.52018738 209.98574829 C-113.58053404 202.13047388 -113.62609342 194.27527838 -113.65543652 186.4198246 C-113.67102972 182.38215799 -113.69215048 178.34468444 -113.72631836 174.30712891 C-113.75914022 170.40378319 -113.77690061 166.50062207 -113.78463173 162.5971489 C-113.7901346 161.11494419 -113.80087933 159.6327485 -113.81719017 158.15062332 C-113.92710132 147.74032629 -113.32768123 138.50194839 -107.78515625 129.4140625 C-107.26977295 128.55619141 -106.75438965 127.69832031 -106.22338867 126.81445312 C-105.67529541 125.92693359 -105.12720215 125.03941406 -104.5625 124.125 C-103.99055908 123.17818359 -103.41861816 122.23136719 -102.8293457 121.25585938 C-101.64437216 119.29573806 -100.45481686 117.33837944 -99.26074219 115.38378906 C-96.54564484 110.93693245 -93.86773564 106.46792093 -91.1875 102 C-90.68750488 101.16952148 -90.18750977 100.33904297 -89.67236328 99.48339844 C-86.86532892 94.81340375 -84.11963237 90.11779505 -81.4375 85.375 C-77.04943756 77.62489389 -72.37349119 70.05622753 -67.70849609 62.47070312 C-65.75589909 59.28658939 -63.83463515 56.08408539 -61.92016602 52.87695312 C-60.54630697 50.57750466 -59.16826189 48.28062355 -57.7890625 45.984375 C-55.50287092 42.17557492 -53.22409684 38.36244221 -50.94921875 34.546875 C-47.15336358 28.18545566 -43.33126893 21.84013893 -39.5 15.5 C-39.01466797 14.69159668 -38.52933594 13.88319336 -38.02929688 13.05029297 C-36.84577243 11.08712403 -35.6461104 9.13528952 -34.4375 7.1875 C-33.80714844 6.16011719 -33.17679688 5.13273437 -32.52734375 4.07421875 C-28.82144398 -0.6313457 -24.31959832 -3.0157641 -18.578125 -4.25390625 C-12.08927278 -5.02232296 -5.56123352 -3.33674011 0 0 Z M85.5 321.5 C85.49576806 322.34575686 85.49153612 323.19151373 85.48717594 324.06289959 C85.38390169 344.63560609 85.27526873 365.20827819 85.16066074 385.7809248 C85.10536679 395.72967038 85.05189106 405.67841955 85.00268555 415.62719727 C84.95979684 424.29786022 84.91350701 432.96849717 84.86312145 441.63911992 C84.83655829 446.23074574 84.81170616 450.82236652 84.79092598 455.41402245 C84.77131502 459.73545393 84.74715795 464.05683611 84.71950912 468.37822342 C84.71016229 469.96448304 84.70247855 471.55075346 84.69658089 473.13702965 C84.68827936 475.30297013 84.67399159 477.46879223 84.65821838 479.63468933 C84.65176583 480.84684711 84.64531328 482.05900488 84.6386652 483.30789471 C84.5 486.5 84.5 486.5 83.90914536 489.30386162 C83.22501121 491.57826016 83.22501121 491.57826016 84.79545593 493.50352478 C85.46067764 494.14939041 86.12589935 494.79525604 86.8112793 495.46069336 C87.55923264 496.20173813 88.30718597 496.9427829 89.07780457 497.70628357 C89.90162125 498.49285843 90.72543793 499.27943329 91.57421875 500.08984375 C92.82728569 501.32306114 92.82728569 501.32306114 94.10566711 502.58119202 C96.78585154 505.21446716 99.48544347 507.8266886 102.1875 510.4375 C104.86824917 513.04800069 107.54465741 515.66274074 110.21577454 518.28309631 C111.8799764 519.91350566 113.55030824 521.53768759 115.22746277 523.1547699 C125.35829786 533.02670491 127.68934067 541.09543922 128.09765625 554.90234375 C128.13684677 555.97948135 128.17603729 557.05661896 128.21641541 558.16639709 C128.33979214 561.5898728 128.45180243 565.01359286 128.5625 568.4375 C128.67855896 571.85774071 128.79710214 575.27786415 128.91929626 578.69789124 C128.994527 580.81920388 129.0660038 582.9406542 129.1330719 585.0622406 C129.33464583 590.92430132 129.77456649 596.67885676 130.5 602.5 C131.03689453 602.13567871 131.57378906 601.77135742 132.12695312 601.39599609 C133.40755208 600.52701823 134.68815104 599.65804036 135.96875 598.7890625 C136.4740625 598.36367188 136.979375 597.93828125 137.5 597.5 C137.5 596.84 137.5 596.18 137.5 595.5 C138.31210938 595.16548828 138.31210938 595.16548828 139.140625 594.82421875 C142.24975465 593.07919399 144.67854539 590.74687564 147.25 588.3125 C148.32617919 587.3092049 149.40300198 586.3065997 150.48046875 585.3046875 C151.00044434 584.81967773 151.52041992 584.33466797 152.05615234 583.83496094 C153.86096683 582.16625522 155.70391047 580.54596879 157.5625 578.9375 C160.75244609 576.1719958 163.88092989 573.34524228 167 570.5 C186.24172916 552.98816351 186.24172916 552.98816351 197.5 552.5 C202.581637 553.19098747 206.36480507 554.63048899 210.4375 557.75 C215.14802292 564.03069723 216.62402473 570.19710159 216.62939453 577.86303711 C216.63254669 579.15636459 216.63569885 580.44969208 216.63894653 581.7822113 C216.63715337 583.19725579 216.63510159 584.61229998 216.6328125 586.02734375 C216.63348747 587.49589555 216.6344591 588.96444724 216.63571167 590.43299866 C216.63718741 593.52231909 216.63504329 596.61161066 216.63037109 599.70092773 C216.62475802 603.5961003 216.62801753 607.49120349 216.63377762 611.38637352 C216.66872375 638.61201644 216.66872375 638.61201644 216.1796875 651.56640625 C216.15770294 652.34958725 216.13571838 653.13276825 216.11306763 653.93968201 C215.92235985 657.94826047 215.28668154 661.35660836 213.98660278 665.1592865 C212.40519555 670.31603113 212.10877516 674.92577415 212.20703125 680.2890625 C212.21360245 681.67167267 212.21360245 681.67167267 212.2203064 683.08221436 C212.23164056 685.06501166 212.24990013 687.04777951 212.27450562 689.03045654 C212.31312774 692.17612796 212.33242604 695.32141553 212.34692383 698.46728516 C212.38105055 705.14502981 212.43876236 711.82245607 212.5 718.5 C212.57101494 726.24369165 212.63212809 733.98719814 212.66781616 741.73114014 C212.68713447 744.81661854 212.72465025 747.90152392 212.76293945 750.98681641 C212.77384626 752.89485185 212.78390029 754.80289243 212.79296875 756.7109375 C212.80846771 757.55694519 212.82396667 758.40295288 212.8399353 759.27459717 C212.84189075 766.73675865 211.68850329 775.10718304 206.3125 780.6875 C205.69632813 781.33203125 205.08015625 781.9765625 204.4453125 782.640625 C201.91623235 785.05797871 199.33481866 787.38784257 196.66796875 789.65234375 C194.23692346 791.72420757 191.86820608 793.85664656 189.5 796 C186.51937279 798.68983431 183.52754767 801.36310364 180.5 804 C170.21013409 811.46663502 170.21013409 811.46663502 164.27294922 821.29736328 C164.28342285 822.45993652 164.29389648 823.62250977 164.3046875 824.8203125 C164.31113281 826.07714844 164.31757812 827.33398438 164.32421875 828.62890625 C164.34097656 829.94761719 164.35773438 831.26632812 164.375 832.625 C164.38503017 833.96483721 164.39415596 835.30468152 164.40234375 836.64453125 C164.42597925 839.92986573 164.45892766 843.21484465 164.5 846.5 C167.64956221 844.99548687 169.9424388 843.31153063 172.5625 841 C177.56668145 837.0786906 182.13350282 835.51788342 188.5 835.5 C192.01527458 836.12208511 195.21304488 837.11725239 198.5 838.5 C199.56927734 838.92539063 199.56927734 838.92539063 200.66015625 839.359375 C204.93715605 842.01093326 205.78705636 848.16047429 206.88922119 852.7567749 C208.1518509 860.49493995 207.80509262 868.31580617 207.6796875 876.1328125 C207.65921396 878.0198365 207.63971058 879.90687126 207.62112427 881.79391479 C207.57882052 885.7291869 207.52542021 889.66410434 207.46386719 893.59912109 C207.38614484 898.61980125 207.33545894 903.64032186 207.2929821 908.66140938 C207.25721496 912.55138018 207.20749952 916.44107875 207.1536293 920.33083725 C207.12956152 922.18138585 207.10963205 924.03199344 207.09408188 925.88263321 C206.89998818 946.87831177 206.89998818 946.87831177 201.5 956.5 C199.625 957.5625 199.625 957.5625 197.5 958.5 C195.27256213 959.91977909 195.27256213 959.91977909 193.5 961.5 C193.5 962.16 193.5 962.82 193.5 963.5 C192.90541992 963.77239502 192.31083984 964.04479004 191.69824219 964.32543945 C189.55559444 965.47029488 188.07993363 966.62644698 186.328125 968.29296875 C185.74973877 968.83783936 185.17135254 969.38270996 184.57543945 969.9440918 C183.97304443 970.5194165 183.37064941 971.09474121 182.75 971.6875 C181.49944668 972.8653788 180.24814909 974.04246793 178.99609375 975.21875 C178.09479736 976.06759766 178.09479736 976.06759766 177.17529297 976.93359375 C173.13057151 980.71542599 169.11044357 984.42637095 164.5 987.5 C164.05091274 990.23862232 164.05091274 990.23862232 164.13923645 993.51101685 C164.13511246 994.79271759 164.13098846 996.07441833 164.1267395 997.3949585 C164.13735768 998.82336634 164.14826212 1000.25177208 164.15942383 1001.68017578 C164.16026966 1003.17798851 164.15979582 1004.67580249 164.15809631 1006.1736145 C164.15723321 1010.24785453 164.17490963 1014.32183126 164.19581819 1018.39600992 C164.21453273 1022.65078311 164.21633129 1026.90556188 164.21989441 1031.16036987 C164.22923027 1039.22103584 164.25386483 1047.28158019 164.28394288 1055.34219253 C164.31743902 1064.51737973 164.33396083 1073.69257263 164.34902918 1082.86780572 C164.3804131 1101.74527284 164.43320345 1120.62262665 164.5 1139.5 C168.39222044 1137.22133827 171.7475092 1134.73809965 175.1875 1131.8125 C176.25450846 1130.91062965 177.32222648 1130.00959818 178.390625 1129.109375 C179.18049805 1128.44325195 179.18049805 1128.44325195 179.98632812 1127.76367188 C182.10758151 1125.99276744 184.2701618 1124.27653871 186.4375 1122.5625 C191.12123823 1118.84597275 195.67696667 1114.98909194 200.21069336 1111.09204102 C204.28898869 1107.60550566 204.28898869 1107.60550566 206.5 1106.5 C206.5 1105.84 206.5 1105.18 206.5 1104.5 C207.37374268 1104.11086426 207.37374268 1104.11086426 208.26513672 1103.71386719 C224.46014622 1094.91753911 236.51766051 1074.36637431 244.5 1058.5 C245.02335937 1057.49066406 245.54671875 1056.48132812 246.0859375 1055.44140625 C255.02157188 1038.00104371 260.44357969 1020.6862654 262.140625 1001.16015625 C262.5 997.5 262.5 997.5 262.98780072 995.65465462 C265.55725914 984.84578461 264.64284399 972.71366454 264.62698364 961.65408325 C264.62813824 959.88373752 264.62972803 958.11339202 264.63171089 956.34304702 C264.635862 951.50984158 264.6338322 946.67665604 264.63072467 941.84345055 C264.62845174 936.61163071 264.63196077 931.37981417 264.63470459 926.147995 C264.63915092 915.8813323 264.63818799 905.61467693 264.63529195 895.34801395 C264.63302046 886.93833677 264.63273296 878.52866162 264.63381577 870.11898422 C264.63404561 868.31291993 264.63404561 868.31291993 264.63428011 866.47036948 C264.63459994 864.02189971 264.63492415 861.57342994 264.6352527 859.12496017 C264.6381075 836.12500309 264.63482718 813.12504999 264.62945233 790.12509356 C264.62504449 770.67095874 264.62575866 751.21683001 264.63037109 731.76269531 C264.74134407 597.08139377 264.74134407 597.08139377 264.0860877 462.402349 C264.05511004 458.66812264 264.025462 454.93388723 263.99585342 451.19964981 C263.95053226 445.61241968 263.89933602 440.02527827 263.8421998 434.4381566 C263.82249457 432.48171282 263.80407064 430.52525559 263.78710318 428.56878614 C263.76381434 425.96976299 263.73455552 423.37088052 263.70333862 420.77194214 C263.69777958 420.03954256 263.69222054 419.30714298 263.68649304 418.55254948 C263.61978731 413.77940128 263.33420852 409.19578318 262.5 404.5 C260.07737183 402.38785996 260.07737183 402.38785996 256.8125 401.234375 C255.63816406 400.73679687 254.46382812 400.23921875 253.25390625 399.7265625 C252.00295078 399.2334947 250.75164594 398.74131241 249.5 398.25 C247.68822266 397.49589844 247.68822266 397.49589844 245.83984375 396.7265625 C243.47504483 395.74358841 241.10547332 394.77200655 238.73095703 393.81274414 C232.21861049 391.16676504 225.88966407 388.25165438 219.625 385.0625 C202.92364808 376.63104733 185.98136407 368.67366418 169.09936523 360.61206055 C163.98142391 358.16777076 158.8674018 355.71561416 153.7578125 353.25390625 C152.63068848 352.7112915 151.50356445 352.16867676 150.34228516 351.60961914 C148.17209206 350.56447063 146.00246216 349.51815154 143.83349609 348.47045898 C142.84687988 347.99552002 141.86026367 347.52058105 140.84375 347.03125 C139.97943359 346.61423828 139.11511719 346.19722656 138.22460938 345.76757812 C136.19234671 344.82210252 134.13904127 343.92161195 132.07617188 343.04492188 C128.62887396 341.55567411 125.28861651 339.9433623 121.9375 338.25 C121.34251709 337.95061523 120.74753418 337.65123047 120.13452148 337.34277344 C117.62360742 336.07924643 115.11513754 334.81089984 112.60644531 333.54296875 C110.75931161 332.61028617 108.91093532 331.68009961 107.0625 330.75 C105.97066406 330.19828125 104.87882812 329.6465625 103.75390625 329.078125 C99.01619338 326.78036269 94.20795836 324.7455656 89.27563477 322.90722656 C88.5655275 322.64218323 87.85542023 322.37713989 87.12379456 322.10406494 C86.58794235 321.90472351 86.05209015 321.70538208 85.5 321.5 Z M-122.3125 327.8125 C-123.00738525 328.16280273 -123.70227051 328.51310547 -124.41821289 328.87402344 C-131.33910094 332.38030367 -138.20369768 335.99611009 -145.05200195 339.6418457 C-150.44663302 342.49562889 -155.89456566 345.08897957 -161.5 347.5 C-162.91838115 348.11884731 -164.33635267 348.73863437 -165.75390625 349.359375 C-166.45475342 349.66625244 -167.15560059 349.97312988 -167.87768555 350.28930664 C-175.24427916 353.5285005 -182.49218359 356.92997604 -189.67016602 360.56713867 C-199.90511491 365.74750945 -210.32757513 370.49892992 -220.87109375 375.01586914 C-224.82614552 376.72097024 -228.68520633 378.56216932 -232.52807617 380.5065918 C-249.29500912 388.9533728 -266.63819144 396.28462858 -283.88989258 403.66943359 C-284.52948158 403.94337448 -285.16907059 404.21731537 -285.82804108 404.4995575 C-287.38529803 405.16651805 -288.94264004 405.83328 -290.5 406.5 C-290.52340773 432.43081182 -290.54101776 458.36162205 -290.55181217 484.29244232 C-290.55695843 496.33379979 -290.56396919 508.37515067 -290.57543945 520.41650391 C-290.58543744 530.91732268 -290.59186556 541.41813669 -290.59408849 551.91896009 C-290.59538694 557.47395894 -290.59841761 563.02894414 -290.60573006 568.5839386 C-290.61257113 573.82382641 -290.61460067 579.0636951 -290.61310768 584.30358696 C-290.6133804 586.21581057 -290.61533716 588.12803488 -290.61920547 590.04025459 C-290.6382146 599.93105406 -290.41799528 609.7060973 -289.72528744 619.57461548 C-289.31621232 626.70229708 -289.37802539 633.82876114 -289.40234375 640.96582031 C-289.40426997 642.6545253 -289.40573042 644.34323088 -289.4067688 646.03193665 C-289.40990806 649.64978366 -289.41614725 653.26760675 -289.42483521 656.88544464 C-289.43863408 662.70664773 -289.44431436 668.52784348 -289.44897461 674.34906006 C-289.46185087 688.86799304 -289.48587952 703.38690546 -289.51037598 717.90582275 C-289.53407438 732.0674199 -289.5524065 746.2290113 -289.5625 760.390625 C-289.5632985 761.39277613 -289.56409701 762.39492726 -289.56491971 763.4274466 C-289.5897769 796.97441418 -289.34558386 830.51230723 -288.85021973 864.05560303 C-288.46326236 890.57938921 -288.45273636 917.09510298 -288.63084126 943.62089086 C-288.75615597 963.39534855 -288.03787124 982.83662236 -283.6875 1002.1875 C-283.42469238 1003.40228027 -283.16188477 1004.61706055 -282.89111328 1005.86865234 C-282.1146203 1009.41746428 -281.31401491 1012.95962428 -280.5 1016.5 C-280.15267822 1018.01376221 -280.15267822 1018.01376221 -279.79833984 1019.55810547 C-276.13548306 1035.3043348 -270.83590138 1049.32287541 -263.83984375 1063.90234375 C-263.46206787 1064.69116943 -263.08429199 1065.47999512 -262.69506836 1066.29272461 C-261.46465512 1068.56528151 -260.18962059 1070.54314208 -258.5 1072.5 C-257.84 1072.5 -257.18 1072.5 -256.5 1072.5 C-256.24476563 1073.08136719 -255.98953125 1073.66273438 -255.7265625 1074.26171875 C-252.04438728 1080.98110219 -243.37264108 1089.06367946 -236.5 1092.5 C-236.49826375 1091.62241466 -236.4965275 1090.74482933 -236.49473864 1089.8406505 C-236.39175405 1037.85029882 -236.28365098 985.85995994 -236.16888306 933.86963287 C-236.15511316 927.62980415 -236.14138611 921.38997535 -236.12768555 915.15014648 C-236.12495724 913.90788691 -236.12222894 912.66562734 -236.11941796 911.38572354 C-236.07531956 891.26016077 -236.03469396 871.1345924 -235.99534739 851.00901984 C-235.95490966 830.36478093 -235.9107501 809.7205524 -235.86312145 789.07632881 C-235.83383989 776.33346075 -235.80747592 763.59059346 -235.78482103 750.84771187 C-235.76901673 742.11442447 -235.74960365 733.38114978 -235.72733159 724.64787649 C-235.71458106 719.60612156 -235.70344193 714.56437639 -235.69658089 709.52260971 C-235.69026592 704.90788809 -235.67942479 700.29320017 -235.6649667 695.67849708 C-235.66053538 694.00813155 -235.6577725 692.33776059 -235.65683801 690.66738945 C-235.65532509 688.39760779 -235.64774571 686.12792317 -235.6386652 683.85816097 C-235.63600716 682.59710976 -235.63334911 681.33605854 -235.63061053 680.03679365 C-235.4986465 676.46334861 -235.00939211 673.03586159 -234.5 669.5 C-234.93977602 667.22706295 -234.93977602 667.22706295 -235.875 665.3125 C-238.11706684 660.1683186 -238.62783607 656.04670743 -238.6328125 650.37890625 C-238.63499535 649.30487801 -238.63499535 649.30487801 -238.63722229 648.20915222 C-238.63949201 645.82688372 -238.63311555 643.4447547 -238.625 641.0625 C-238.62311676 640.24197144 -238.62123352 639.42144287 -238.61929321 638.5760498 C-238.60239506 632.2171462 -238.5569727 625.85866081 -238.5 619.5 C-238.49139954 618.51175232 -238.48279907 617.52350464 -238.47393799 616.50531006 C-238.41757773 610.41021152 -238.33901225 604.31588834 -238.23553467 598.22140503 C-238.20374028 596.25461685 -238.1765324 594.28774869 -238.15411377 592.3208313 C-237.88756748 570.17224993 -237.88756748 570.17224993 -232.5 560.5 C-230.66015625 559.359375 -230.66015625 559.359375 -228.5 558.5 C-227.77683594 558.19578125 -227.05367187 557.8915625 -226.30859375 557.578125 C-219.58908787 555.23127945 -214.25529963 555.16581155 -207.5 557.5 C-201.91848901 560.31301032 -197.55415588 564.19857048 -193.265625 568.6875 C-191.31099033 570.69402762 -189.27772216 572.57284138 -187.1875 574.4375 C-186.20330078 575.31728516 -186.20330078 575.31728516 -185.19921875 576.21484375 C-183.58922326 577.70107403 -183.58922326 577.70107403 -181.5 577.5 C-181.5 578.16 -181.5 578.82 -181.5 579.5 C-179.94759659 580.89325954 -178.32970015 582.21380128 -176.6875 583.5 C-171.45311405 587.6752884 -166.5176277 592.06858158 -161.6171875 596.62890625 C-159.84603187 598.61036931 -159.84603187 598.61036931 -158.5 598.5 C-158.49413376 597.84569 -158.48826752 597.19138 -158.48222351 596.51724243 C-158.41799482 589.67056075 -158.33350055 582.82433634 -158.23754883 575.97802734 C-158.2044163 573.42730766 -158.17634853 570.87651671 -158.15356445 568.32568359 C-158.11980391 564.64650271 -158.06747586 560.96796802 -158.01171875 557.2890625 C-158.00532883 556.15949127 -157.9989389 555.02992004 -157.99235535 553.86611938 C-157.8430175 545.71525906 -156.83045361 537.60240795 -152.5 530.5 C-151.51 530.17 -150.52 529.84 -149.5 529.5 C-149.5 528.84 -149.5 528.18 -149.5 527.5 C-148.60777489 527.0957505 -148.60777489 527.0957505 -147.69752502 526.68333435 C-145.50298554 525.50160767 -144.08599693 524.32810772 -142.33959961 522.56665039 C-141.74896225 521.97586197 -141.15832489 521.38507355 -140.54978943 520.77638245 C-139.61055382 519.82166298 -139.61055382 519.82166298 -138.65234375 518.84765625 C-137.99923721 518.19171982 -137.34613068 517.53578339 -136.67323303 516.85997009 C-134.58990674 514.76546831 -132.5136385 512.66412439 -130.4375 510.5625 C-129.03626926 509.15123388 -127.63458156 507.7404213 -126.23242188 506.33007812 C-123.14162374 503.21964238 -120.05526175 500.10488136 -116.97276306 496.98622131 C-115.5 495.5 -115.5 495.5 -113.92812729 494.3282795 C-111.75791782 491.5499911 -112.14860168 489.24774053 -112.17720032 485.76130676 C-112.1787206 485.07270669 -112.18024087 484.38410662 -112.18180722 483.67463988 C-112.1905932 481.36195147 -112.22097868 479.05004889 -112.2512207 476.73754883 C-112.26192642 475.08196283 -112.27130398 473.42636779 -112.27944946 471.77076721 C-112.30536677 467.2709086 -112.34992052 462.77140259 -112.39774728 458.27173066 C-112.44456324 453.57126014 -112.47434198 448.87068296 -112.50590515 444.17008972 C-112.56829094 435.26648994 -112.64606417 426.36309327 -112.72932547 417.45966691 C-112.82335979 407.32444734 -112.90030172 397.18912077 -112.97578681 387.05374873 C-113.13146576 366.20232341 -113.30867833 345.35112673 -113.5 324.5 C-116.77056348 324.5 -119.44984339 326.35358275 -122.3125 327.8125 Z " fill="#FBF8F9" transform="translate(1012.5,299.5)"/>
<path d="M0 0 C0.33 21.78 0.66 43.56 1 66 C-13 74 -13 74 -20 77 C-22.46859083 78.21278264 -24.92485232 79.43893244 -27.375 80.6875 C-33.08392695 83.57145312 -38.82830938 86.35940053 -44.625 89.0625 C-49.83088127 91.49073079 -54.9962333 93.9750141 -60.125 96.5625 C-66.71501612 99.88386812 -73.37989717 103.01699988 -80.078125 106.11181641 C-83.36703973 107.63176963 -86.65269104 109.15869773 -89.9375 110.6875 C-90.87952271 111.12461304 -90.87952271 111.12461304 -91.84057617 111.57055664 C-95.18091519 113.12670389 -98.47970361 114.73957646 -101.75 116.4375 C-105 118 -105 118 -108 118 C-108 118.66 -108 119.32 -108 120 C-108.63164063 120.20753906 -109.26328125 120.41507813 -109.9140625 120.62890625 C-116.00276284 122.72573533 -121.65971639 125.26362294 -127.37890625 128.21875 C-132.03338173 130.59122562 -136.77789367 132.61762015 -141.625 134.5625 C-146.39503217 136.47978325 -151.05416901 138.44736071 -155.625 140.8125 C-162.3063166 144.25913781 -169.20357782 147.18241654 -176.11376953 150.1340332 C-181.74906332 152.5504871 -187.32855767 155.06354318 -192.87963867 157.66625977 C-193.56766319 157.98812508 -194.25568771 158.30999039 -194.96456146 158.64160919 C-196.64335012 159.42707907 -198.32171886 160.21344632 -200 161 C-200.11283574 269.53446414 -200.0804637 378.06737789 -199.61044246 486.60105258 C-199.57849487 493.98024671 -199.54756908 501.35944396 -199.51765919 508.73864663 C-199.33006515 554.98944084 -199.13415418 601.23504372 -198.32470703 647.47969055 C-198.08308133 661.40346009 -197.92221334 675.32014586 -197.97265625 689.24609375 C-197.97528788 690.00051632 -197.9779195 690.75493889 -197.98063087 691.53222275 C-198.00550644 697.98097006 -198.04723806 704.42956695 -198.09594727 710.87817383 C-198.23950004 730.70931522 -197.81215647 749.76551724 -193.6875 769.25 C-193.4723877 770.29357666 -193.25727539 771.33715332 -193.03564453 772.41235352 C-191.54047344 779.59992434 -189.97990108 786.77366516 -188.375 793.9375 C-188.18123779 794.80600586 -187.98747559 795.67451172 -187.7878418 796.56933594 C-186.60192798 801.75062002 -185.19405225 806.81067259 -183.57275391 811.87329102 C-183 814 -183 814 -183 817 C-182.34 817 -181.68 817 -181 817 C-180.82984375 817.54527344 -180.6596875 818.09054687 -180.484375 818.65234375 C-178.88508091 823.62887056 -177.02611442 828.33868223 -174.76953125 833.0546875 C-174 835 -174 835 -174 838 C-173.34 838 -172.68 838 -172 838 C-171.65453125 838.77859375 -171.3090625 839.5571875 -170.953125 840.359375 C-163.06744783 856.05838369 -149.16710001 867.69944116 -136 879 C-134.80940494 880.03459161 -133.6192917 881.06973798 -132.4296875 882.10546875 C-129.27103543 884.84604453 -126.10843103 887.58204072 -122.94482422 890.31689453 C-121.09755344 891.91557451 -119.25370191 893.51812137 -117.41015625 895.12109375 C-111.06588682 900.61839522 -104.6176209 905.91932243 -97.97949219 911.05810547 C-93.55758217 914.50279089 -89.4010612 918.17507643 -85.2734375 921.96875 C-83.1813988 923.83792547 -81.0468084 925.55558025 -78.8125 927.25 C-74.65398899 930.41281119 -70.7378611 933.80677077 -66.8125 937.25 C-61.38287741 942.00508881 -55.84228905 946.5525798 -50.13671875 950.97119141 C-45.54991984 954.5345219 -41.10522708 958.24178338 -36.6875 962.01171875 C-30.66133679 967.15384824 -24.51779941 972.14927959 -18.36328125 977.13671875 C-12.56542419 981.85118062 -6.86770905 986.66698514 -1.20751953 991.54467773 C3.26969678 995.39523164 7.80939081 999.15497514 12.40234375 1002.8671875 C14.51193081 1004.59926951 16.59196792 1006.35504991 18.66235352 1008.13330078 C19.60172508 1008.93974533 19.60172508 1008.93974533 20.56007385 1009.76248169 C21.03524948 1010.17086273 21.51042511 1010.57924377 22 1011 C22.25685152 966.18467017 22.49565089 921.36925795 22.63514709 876.5533905 C22.63721795 875.88978912 22.63928881 875.22618775 22.64142242 874.54247724 C22.68631914 860.11959983 22.72787142 845.6967146 22.76597994 831.27381771 C22.7846895 824.20052843 22.80413788 817.12724128 22.82397461 810.05395508 C22.825936 809.35008919 22.82789738 808.64622331 22.8299182 807.92102816 C22.89380497 785.11874228 23.00644845 762.31701505 23.14445831 739.51506742 C23.29007597 715.41230515 23.37996333 691.30989327 23.41132742 667.20670527 C23.43190671 652.77105957 23.49689238 638.33701789 23.618747 623.90186598 C23.69805679 614.0021914 23.7219977 604.10334563 23.70252066 594.20337645 C23.69291464 588.49143938 23.70759925 582.78230396 23.78808212 577.07086563 C23.86130487 571.83632161 23.86464271 566.60645046 23.81348342 561.37168726 C23.8071657 559.48308325 23.82602836 557.59418293 23.87324774 555.70615873 C24.18550537 544.47551449 24.18550537 544.47551449 18.73553383 535.0710386 C15.62511454 532.18936323 12.31639422 529.67448035 8.82596082 527.27302154 C6.24228014 525.47173362 3.84863429 523.46120584 1.4375 521.4375 C0.57253906 520.73625 -0.29242187 520.035 -1.18359375 519.3125 C-9.28148477 512.66346882 -17.18922346 505.77642707 -24.99609375 498.7890625 C-26.96408042 497.03206855 -28.94792052 495.29497677 -30.9375 493.5625 C-33.93080209 490.953713 -36.8759918 488.29750037 -39.8125 485.625 C-43.33010818 482.44240212 -46.92747051 479.40882038 -50.625 476.4375 C-54.65736782 473.17884982 -58.30051109 469.75532428 -61.90234375 466.03515625 C-65.20527016 462.83064106 -68.8235418 460.03049115 -72.41015625 457.15234375 C-75.17666749 454.85317679 -77.6377896 452.39529281 -80.12890625 449.80859375 C-82.44806588 447.56690083 -84.92208202 445.58104529 -87.4375 443.5625 C-91.58026998 440.23125894 -95.38901911 436.77289675 -99.05078125 432.921875 C-101.07197343 430.8211585 -101.07197343 430.8211585 -104.08300781 428.84912109 C-106.73012557 426.63870477 -106.97089802 426.14468425 -107.69702148 422.53466797 C-107.7027508 421.18694899 -107.67526489 419.83882953 -107.62109375 418.4921875 C-107.61533829 417.74942062 -107.60958282 417.00665375 -107.60365295 416.24137878 C-107.57719015 413.78454512 -107.50762159 411.33094369 -107.4375 408.875 C-107.41023828 407.15946205 -107.38554331 405.44388159 -107.36328125 403.72827148 C-107.29519415 399.12493313 -107.18814222 394.52329387 -107.07147217 389.92095947 C-106.97343274 385.91423622 -106.89444262 381.90720821 -106.81471252 377.90008545 C-106.58900557 366.59876541 -106.31163495 355.29925338 -106 344 C-101.98161605 345.86031308 -99.10785246 348.52731578 -95.9375 351.5625 C-91.96360752 355.30508714 -87.96623805 358.91544131 -83.6875 362.3125 C-78.13380539 366.76685623 -72.98644537 371.60448744 -67.83276367 376.5090332 C-63.91654111 380.23188642 -59.93167095 383.84702305 -55.8503418 387.38818359 C-53.36455654 389.55352919 -50.9312753 391.77377202 -48.5 394 C-45.33738443 396.884201 -42.16559512 399.75177475 -38.9375 402.5625 C-33.00343745 407.73087706 -27.14012187 412.97253962 -21.4140625 418.37109375 C-14.90306334 424.50810818 -8.40449494 430.49957953 -1.3671875 436.03515625 C1.26038633 438.21612925 3.59896457 440.57112648 6 443 C8.64941254 445.53917195 11.32479967 448.0505424 14 450.5625 C14.75112061 451.26850342 15.50224121 451.97450684 16.27612305 452.7019043 C22.30670961 458.3634674 28.36739306 463.99121697 34.46044922 469.58544922 C36.04979629 471.0457532 37.63637496 472.5090231 39.22265625 473.97265625 C46.19988922 480.40657938 46.19988922 480.40657938 53.40234375 486.5859375 C55.1670706 488.14787178 56.81335884 489.81023832 58.47192383 491.48339844 C61.7114038 494.69855255 65.05203594 497.80915009 68.375 500.9375 C69.10460937 501.62779297 69.83421875 502.31808594 70.5859375 503.02929688 C71.3078125 503.70927734 72.0296875 504.38925781 72.7734375 505.08984375 C73.73902588 506.00044556 73.73902588 506.00044556 74.72412109 506.92944336 C76.82627056 508.94912536 76.82627056 508.94912536 78.72257525 510.13590139 C81.61914629 512.18649979 83.65643157 513.7950855 84.65159786 517.28519166 C84.90047347 520.13535248 84.92623797 522.91393491 84.87974548 525.77479553 C84.89484254 527.41263111 84.89484254 527.41263111 84.91024458 529.08355427 C84.93556003 532.76219375 84.91079209 536.43880943 84.88647461 540.11743164 C84.89437289 542.77289777 84.90504466 545.42822068 84.91911983 548.08364773 C84.94416196 553.86627929 84.94321122 559.64845518 84.92528915 565.43110657 C84.8987554 574.02691488 84.91217643 582.62233466 84.93381682 591.21814008 C84.9690525 605.67111797 84.97162695 620.12393017 84.95559692 634.57693481 C84.93981803 648.8846529 84.93842939 663.19225226 84.95626831 677.49996948 C84.95736738 678.38908776 84.95846645 679.27820604 84.95959883 680.1942673 C84.96524772 684.70895886 84.97114014 689.22365007 84.97711504 693.73834121 C85.02138465 727.61435011 85.02579642 761.49027836 85.01235425 795.36630809 C85.00085847 824.34057224 85.00220241 853.3147995 85.01660156 882.2890625 C85.01753663 884.20653665 85.01846977 886.1240108 85.01940095 888.04148495 C85.02311761 895.66659385 85.02689515 903.29170271 85.0307638 910.91681153 C85.07152127 991.61123869 85.05582595 1072.30558466 85 1153 C84.34 1153 83.68 1153 83 1153 C83 1152.34 83 1151.68 83 1151 C82.16275391 1150.61328125 82.16275391 1150.61328125 81.30859375 1150.21875 C72.41931595 1145.52593329 64.58079305 1138.41935468 56.63964844 1132.26904297 C54.01375617 1130.23667429 51.38179792 1128.21221237 48.75 1126.1875 C48.22349854 1125.78217041 47.69699707 1125.37684082 47.15454102 1124.95922852 C44.07301294 1122.58843481 40.98614266 1120.22481922 37.89453125 1117.8671875 C30.56630504 1112.27783422 23.26287937 1106.66263458 16.02758789 1100.95336914 C12.2065551 1097.94034673 8.3622598 1094.9599555 4.5 1092 C-6.33559273 1083.69100359 -17.03521612 1075.2110317 -27.67480469 1066.65283203 C-34.31933178 1061.30971822 -40.97324802 1055.98741873 -47.75 1050.8125 C-53.60816421 1046.33658929 -59.31834302 1041.69717016 -65 1037 C-66.72821855 1035.58217687 -68.45740474 1034.16553248 -70.1875 1032.75 C-71.095 1032.0075 -72.0025 1031.265 -72.9375 1030.5 C-76.51668775 1027.57821408 -80.10139 1024.66328252 -83.6875 1021.75 C-84.70263672 1020.92508057 -84.70263672 1020.92508057 -85.73828125 1020.08349609 C-89.19751086 1017.27327919 -92.65912688 1014.46608255 -96.125 1011.6640625 C-102.95200983 1006.13969256 -109.73489888 1000.57459318 -116.42089844 994.88012695 C-119.72748335 992.06624169 -123.06689497 989.29927406 -126.4375 986.5625 C-131.838557 982.16337821 -137.12684102 977.64176985 -142.40234375 973.09375 C-144.7378338 971.08054875 -147.08356402 969.08071839 -149.44140625 967.09375 C-160.37927357 957.85227929 -170.9070813 948.15964874 -181 938 C-181.85078125 937.17242188 -182.7015625 936.34484375 -183.578125 935.4921875 C-189.86928447 929.32979446 -195.55091262 922.93270445 -201 916 C-201.93030974 914.83669558 -202.86133254 913.67396113 -203.79296875 912.51171875 C-218 894.71160929 -218 894.71160929 -218 891 C-218.66 891 -219.32 891 -220 891 C-231.76438757 869.65185573 -231.76438757 869.65185573 -236.1875 861 C-236.71730469 859.96875 -237.24710938 858.9375 -237.79296875 857.875 C-239.04413875 854.89486693 -239.60494049 852.19855411 -240 849 C-240.66 849 -241.32 849 -242 849 C-244.57536893 843.58780336 -246.6444679 838.2255182 -248.28515625 832.4609375 C-248.9557386 830.15237532 -249.70928928 827.89470848 -250.5 825.625 C-252.00134209 821.17571017 -253.1416719 816.667714 -254.24609375 812.10546875 C-254.74213059 810.06220819 -255.25473388 808.02288646 -255.78515625 805.98828125 C-256.04167969 805.00214844 -256.29820312 804.01601562 -256.5625 803 C-256.79066406 802.13375 -257.01882813 801.2675 -257.25390625 800.375 C-257.89665569 797.46748421 -258.40937425 794.58941628 -258.8840332 791.65136719 C-259.61460542 787.20729493 -260.41663887 782.78517437 -261.27587891 778.36425781 C-264.61101802 760.6893014 -265.68202436 743.81548528 -265.40343094 725.79695892 C-265.35451468 722.27510671 -265.33577086 718.75305312 -265.31225586 715.23095703 C-265.24917696 706.8199482 -265.12868196 698.4102211 -265 690 C-264.9652109 687.54850432 -264.93053772 685.09700699 -264.89599609 682.64550781 C-264.41966314 650.03581085 -264.41966314 650.03581085 -263.76998901 634.22090149 C-262.69297226 607.00274918 -262.65220079 579.76117655 -262.47130275 552.52572036 C-262.44625363 548.75471882 -262.42013533 544.98372552 -262.39374542 541.21273316 C-261.8370403 461.4626879 -261.88156831 381.71201766 -261.92797244 301.96047699 C-261.93605902 287.90390887 -261.9414167 273.84734144 -261.94506836 259.79077148 C-261.94546244 258.27816482 -261.94546244 258.27816482 -261.94586449 256.73500045 C-261.94717073 251.66973498 -261.94843415 246.60446949 -261.94967639 241.539204 C-261.95982976 200.35946569 -261.97724065 159.17973316 -262 118 C-260.12271946 117.05794856 -258.24503509 116.11670184 -256.3671875 115.17578125 C-254.79880127 114.38941284 -254.79880127 114.38941284 -253.19873047 113.5871582 C-238.86631781 106.47564739 -238.86631781 106.47564739 -233 106 C-233 105.34 -233 104.68 -233 104 C-232.21689453 103.65388672 -232.21689453 103.65388672 -231.41796875 103.30078125 C-227.10209108 101.38849219 -222.79578764 99.45703725 -218.5 97.5 C-214.45276449 95.65625938 -210.39519955 93.83852354 -206.328125 92.0390625 C-202.73307495 90.4345603 -199.15596626 88.79089679 -195.578125 87.1484375 C-188.51020408 84 -188.51020408 84 -185 84 C-185 83.34 -185 82.68 -185 82 C-183.89205078 81.54560547 -183.89205078 81.54560547 -182.76171875 81.08203125 C-174.48461224 77.6639123 -166.33316 74.02862018 -158.22265625 70.234375 C-157.56499268 69.92677246 -156.9073291 69.61916992 -156.22973633 69.30224609 C-154.94898212 68.70238119 -153.66882933 68.1012298 -152.3894043 67.49853516 C-150.5968783 66.65723909 -148.79845497 65.82854585 -147 65 C-146.38318359 64.7102832 -145.76636719 64.42056641 -145.13085938 64.12207031 C-141.76675827 62.59407338 -139.77402336 62 -136 62 C-136 61.34 -136 60.68 -136 60 C-135.20078125 59.70867188 -134.4015625 59.41734375 -133.578125 59.1171875 C-127.00102544 56.66235457 -120.73854122 53.94880712 -114.5 50.73828125 C-108.33372877 47.67579163 -102.02668338 44.92178554 -95.73828125 42.12109375 C-92.0108562 40.46078226 -88.31522018 38.74162238 -84.625 37 C-81.09661051 35.38305301 -77.91294964 34.31726619 -74 34 C-74 33.34 -74 32.68 -74 32 C-72.12855305 31.17934931 -70.25265664 30.3688416 -68.375 29.5625 C-67.33085938 29.11003906 -66.28671875 28.65757812 -65.2109375 28.19140625 C-62.11314749 27.04198295 -59.26789946 26.42688777 -56 26 C-56 25.34 -56 24.68 -56 24 C-53.81945416 23.02592397 -51.63763286 22.05501153 -49.453125 21.08984375 C-47.95878974 20.42595914 -46.46811576 19.75364276 -44.984375 19.06640625 C-41.65849598 17.55530035 -39.74133022 17 -36 17 C-36 16.34 -36 15.68 -36 15 C-34.73160474 14.49384702 -33.46016898 13.99530901 -32.1875 13.5 C-31.47980469 13.2215625 -30.77210938 12.943125 -30.04296875 12.65625 C-28 12 -28 12 -25 12 C-25 11.34 -25 10.68 -25 10 C-24.40985107 9.76812988 -23.81970215 9.53625977 -23.21166992 9.29736328 C-20.53550102 8.24353784 -17.861493 7.18433376 -15.1875 6.125 C-14.25873047 5.76019531 -13.32996094 5.39539063 -12.37304688 5.01953125 C-11.0340332 4.48779297 -11.0340332 4.48779297 -9.66796875 3.9453125 C-8.84578857 3.62062988 -8.0236084 3.29594727 -7.17651367 2.96142578 C-0.47232098 0 -0.47232098 0 0 0 Z " fill="#08022D" transform="translate(902,532)"/>
<path d="M0 0 C11.26331811 3.37899543 11.26331811 3.37899543 15.1875 5 C16.00992187 5.33773437 16.83234375 5.67546875 17.6796875 6.0234375 C20.79319705 7.33383714 23.89824363 8.66198745 27 10 C29.87558064 11.17972539 32.75651125 12.27115674 35.68359375 13.3203125 C39.83880284 14.87621741 43.70185324 16.81480553 47.625 18.875 C53.98661405 22.14595744 60.3137151 24.73223549 67.109375 26.9921875 C69.54161291 27.84018396 71.73745382 28.78086104 74 30 C74 30.66 74 31.32 74 32 C75.19625 32.185625 76.3925 32.37125 77.625 32.5625 C82.66469567 33.67454552 86.93438425 35.81858807 91.49487305 38.18969727 C96.69868849 40.88897296 102.01997462 43.19476818 107.42578125 45.46484375 C111.19946447 47.08567163 114.91302195 48.80650886 118.625 50.5625 C122.95861899 52.61047823 127.30682466 54.57421445 131.75 56.375 C137.92731151 58.89260874 143.90016941 61.79654298 149.9074707 64.68945312 C155.65722082 67.43209372 161.42138453 69.81326444 167.43359375 71.9296875 C170.00745087 73.00310737 171.79867316 74.31453965 174 76 C175.47805712 76.65602173 176.98092501 77.25803763 178.5 77.8125 C183.44692236 79.71739104 188.1096391 82.00925054 192.83203125 84.41015625 C202.58039492 89.59200422 202.58039492 89.59200422 213 93 C213 93.66 213 94.32 213 95 C214.0725 95.103125 215.145 95.20625 216.25 95.3125 C220.16665865 96.03055409 220.96743246 96.702763 224 99 C226.34235811 100.20042372 228.67297839 101.34118447 231.0625 102.4375 C231.72354736 102.74461914 232.38459473 103.05173828 233.06567383 103.36816406 C237.86254245 105.56399951 242.71108107 107.44354714 247.73046875 109.078125 C250 110 250 110 251.6574707 111.32714844 C254.82233809 113.58724967 258.21623111 115.08761786 261.75 116.6875 C262.44738281 117.00783203 263.14476562 117.32816406 263.86328125 117.65820312 C265.57357208 118.44306261 267.28652507 119.22211648 269 120 C269.02370557 202.04348359 268.92496469 284.08654904 268.76428509 366.12986851 C268.75532897 370.72435561 268.74641843 375.3188428 268.73754883 379.91333008 C268.73534514 381.05386323 268.73314146 382.19439639 268.730871 383.36949115 C268.7001194 399.41618763 268.67610721 415.46288175 268.65751316 431.50959675 C268.44806643 612.20546815 268.44806643 612.20546815 266.63070443 694.56992278 C266.58259564 696.75174761 266.53495296 698.93358225 266.48737311 701.11541867 C266.1034558 718.6483671 265.65959994 736.1789766 265.1041913 753.70742941 C265.03477744 755.90099117 264.96650011 758.09458918 264.89936399 760.28822184 C264.70898978 766.48846495 264.49949754 772.68745036 264.25804651 778.88592446 C264.18864079 780.71350483 264.12433464 782.54128865 264.06603014 784.36925685 C263.4429834 803.44293817 258.96959182 821.22108752 252 839 C251.6184375 840.00933594 251.236875 841.01867188 250.84375 842.05859375 C240.43394581 869.51127858 226.10283075 893.81619704 206.26953125 915.5078125 C204.79040137 917.13205496 203.32841881 918.77213216 201.88671875 920.4296875 C191.99786073 931.74673526 180.54920455 941.43171502 169 951 C167.62908203 952.13888672 167.62908203 952.13888672 166.23046875 953.30078125 C161.25386233 957.40302051 156.20986827 961.40880275 151.125 965.375 C145.87613001 969.47164402 140.74989992 973.68729426 135.68847656 978.01293945 C132.29132858 980.9156644 128.85254733 983.75579868 125.375 986.5625 C121.63925277 989.59982492 118.0445309 992.74164227 114.5 996 C110.08709656 1000.05662087 105.54499238 1003.88673693 100.8828125 1007.65234375 C97.71983953 1010.22815236 94.60682328 1012.85705222 91.5 1015.5 C86.65065425 1019.62130338 81.7483847 1023.66991943 76.8125 1027.6875 C73.1190609 1030.7243277 69.47701514 1033.81960955 65.83374023 1036.91625977 C62.44045891 1039.7954532 59.01732214 1042.63204237 55.5625 1045.4375 C51.29254941 1048.91072512 47.10504327 1052.46801491 42.9375 1056.0625 C38.2408941 1060.11260443 33.47826178 1064.04411692 28.609375 1067.88671875 C25.42981446 1070.461782 22.34223845 1073.13377581 19.25 1075.8125 C13.92328695 1080.42340185 8.46698427 1084.82043526 2.89941406 1089.13598633 C-0.33732463 1091.65664451 -3.46276965 1094.23786076 -6.5 1097 C-10.0973591 1100.27153545 -13.84728785 1103.27336369 -17.6875 1106.25 C-23.27661997 1110.58437315 -28.67679235 1115.09390103 -34.0234375 1119.72290039 C-38.13884463 1123.28033542 -42.33055881 1126.71880097 -46.59765625 1130.09375 C-49.12721017 1132.10094075 -51.62825938 1134.13965331 -54.125 1136.1875 C-56.08326013 1137.79175615 -58.04155597 1139.39596839 -60 1141 C-60.66499512 1141.54479004 -61.32999023 1142.08958008 -62.01513672 1142.65087891 C-64.19597072 1144.43591192 -66.37904714 1146.21817176 -68.5625 1148 C-69.26584473 1148.57645264 -69.96918945 1149.15290527 -70.69384766 1149.74682617 C-71.35304199 1150.28412354 -72.01223633 1150.8214209 -72.69140625 1151.375 C-73.28123291 1151.85710937 -73.87105957 1152.33921875 -74.47875977 1152.8359375 C-76 1154 -76 1154 -78 1155 C-78.60886614 1041.73555506 -79.20161527 928.47006658 -79.49651527 762.15797424 C-79.5025198 757.44939152 -79.50865234 752.74080898 -79.51489258 748.03222656 C-79.51642819 746.86547642 -79.51796381 745.69872627 -79.51954596 744.49662006 C-79.54598527 725.05788317 -79.60376423 705.61934343 -79.67135788 686.18071109 C-79.74168318 665.77962784 -79.782007 645.37865135 -79.79337829 624.97744894 C-79.80116599 612.5936684 -79.83151563 600.2103999 -79.89268523 587.82676584 C-79.93164561 579.48319081 -79.94138033 571.13990926 -79.92752422 562.79625577 C-79.92041378 558.00572501 -79.92628644 553.2161371 -79.96710205 548.42575455 C-80.0041168 544.04884538 -80.00425783 539.67354448 -79.97497844 535.29659098 C-79.97090618 533.71718603 -79.9803416 532.13767554 -80.00474424 530.55845386 C-80.17553271 518.80621878 -80.17553271 518.80621878 -77.27948749 514.35641384 C-75.2881695 512.33062802 -73.29590745 510.66494274 -71 509 C-69.80454998 507.96746673 -68.61577386 506.92709145 -67.4375 505.875 C-66.78652344 505.31554688 -66.13554688 504.75609375 -65.46484375 504.1796875 C-62.08015232 501.18656893 -58.79444471 498.09179023 -55.5 495 C-47.65627297 487.64311185 -47.65627297 487.64311185 -44 484.5 C-40.10625202 481.15035654 -36.37219339 477.63641079 -32.625 474.125 C-25.56109368 467.50688685 -18.4316517 460.97536191 -11.125 454.625 C-7.20927589 451.21453061 -3.3865747 447.70533722 0.43481445 444.19018555 C4.4300727 440.51640652 8.45629582 436.87870086 12.49609375 433.25390625 C15.21607891 430.80549527 17.92095561 428.34099921 20.625 425.875 C23.70309566 423.07242619 26.7930187 420.29032125 29.9375 417.5625 C33.88745261 414.13163767 37.731871 410.58869729 41.58007812 407.04492188 C44.3345576 404.51274592 47.10733787 402.00972265 49.9375 399.5625 C53.52958789 396.45035705 57.01548282 393.23124165 60.5 390 C64.62872916 386.17205475 68.7848622 382.39141397 73.04296875 378.70703125 C75.3855915 376.66366569 77.69273422 374.58319141 80 372.5 C83.62023723 369.23295665 87.26983565 366.00479224 90.94921875 362.8046875 C93.26088797 360.77041859 95.5353143 358.6977769 97.8125 356.625 C112.93836059 343 112.93836059 343 116 343 C116.02362613 350.2263277 116.04116185 357.45264651 116.05181217 364.67900562 C116.05693496 368.03789511 116.06441719 371.39673708 116.07543945 374.75561523 C116.10033809 382.55181876 116.0885314 390.34650427 116.02566528 398.14251709 C116.0085056 400.72161203 116.00146308 403.30079345 116.00436401 405.87994385 C116.00368519 409.57598734 115.96030008 413.26924314 115.90625 416.96484375 C115.91386856 418.06713821 115.92148712 419.16943268 115.92933655 420.30513 C115.77990231 426.80537652 114.77504184 430.46625476 110.21922302 435.1962738 C107.82684109 437.28251641 105.33135085 439.12761174 102.68408203 440.87597656 C100.574017 442.28431803 98.7386546 443.90774714 96.875 445.625 C96.26914063 446.14835937 95.66328125 446.67171875 95.0390625 447.2109375 C90.28109313 451.38555431 85.65579814 455.71206739 81 460 C75.095292 465.43816317 69.19183975 470.86707222 63.125 476.125 C59.84491419 479.01919336 56.63731943 481.99218892 53.41967773 484.95532227 C50.66526572 487.48740116 47.89257501 489.99035268 45.0625 492.4375 C39.82278465 496.98292595 34.76808857 501.73130225 29.68017578 506.44482422 C23.22649746 512.41836838 16.76138693 518.37083042 10.1171875 524.1328125 C6.89695717 526.97279423 3.74368929 529.88534411 0.58447266 532.79272461 C-3.59378564 536.63595267 -7.80848154 540.4370393 -12.0390625 544.22265625 C-15.5745241 547.19635772 -15.5745241 547.19635772 -16.23052216 551.80848598 C-16.23167631 553.48989724 -16.22158575 555.17133691 -16.20300293 556.85264587 C-16.19967437 558.22320678 -16.19967437 558.22320678 -16.19627857 559.62145579 C-16.18655742 562.66043693 -16.16259612 565.69913717 -16.13867188 568.73803711 C-16.12903077 570.87908267 -16.12029327 573.02013248 -16.11241913 575.16118526 C-16.09437077 579.59916914 -16.07042548 584.03706178 -16.04135132 588.47498703 C-16.00211238 594.46711897 -15.97537706 600.45922969 -15.95336914 606.45144653 C-15.91668243 615.98577836 -15.86740134 625.52001009 -15.81482124 635.05426598 C-15.77943514 641.47340927 -15.74642011 647.89256366 -15.71385193 654.3117218 C-15.70818213 655.42913173 -15.70251233 656.54654166 -15.69667071 657.6978125 C-15.68506612 659.98789559 -15.67347334 662.27797874 -15.66189206 664.56806195 C-15.6441959 668.06244422 -15.62639193 671.55682593 -15.60856533 675.05120754 C-15.17586813 759.9927866 -14.90348376 844.93225212 -14.9375 929.875 C-14.93813635 931.5108196 -14.93813635 931.5108196 -14.93878555 933.17968607 C-14.94958749 960.45313315 -14.9691831 987.72656818 -15 1015 C-13.2516017 1013.73602399 -11.50424584 1012.47060596 -9.75732422 1011.20458984 C-8.78415253 1010.50006683 -7.81098083 1009.79554382 -6.80831909 1009.06967163 C-3.14631616 1006.37085311 0.37317006 1003.52652922 3.875 1000.625 C10.22917804 995.41349219 16.67510117 990.35929505 23.20849609 985.37353516 C26.71596925 982.6843768 30.20036641 979.96544591 33.6875 977.25 C34.44627441 976.65928711 35.20504883 976.06857422 35.98681641 975.45996094 C37.54188812 974.24926158 39.0969006 973.03848614 40.65185547 971.82763672 C43.75504973 969.41232041 46.86058512 967.0000236 49.96606445 964.58764648 C52.94720462 962.27061066 55.92575152 959.95025276 58.90429688 957.62988281 C60.89685539 956.08021825 62.89332929 954.53573859 64.890625 952.9921875 C72.86932018 946.80599247 80.425387 940.29270408 87.7890625 933.3828125 C93.55621497 927.99744418 99.4659087 922.95417348 105.71118164 918.12988281 C110.35315623 914.5379928 114.84811454 910.80155489 119.30957031 906.98876953 C122.73000348 904.06728028 126.1899588 901.20447153 129.6875 898.375 C134.13907021 894.7516289 138.42615725 890.98354488 142.6640625 887.11328125 C144.7617099 885.21557683 146.90103782 883.3865007 149.0625 881.5625 C164.11186734 868.34915548 178.48250706 848.99506165 185 830 C185.66 830 186.32 830 187 830 C187.19529297 828.89205078 187.19529297 828.89205078 187.39453125 827.76171875 C187.9464171 825.24440716 188.67011674 823.16922325 189.6875 820.8125 C191.70546398 815.89694671 193.44080076 810.91213217 195.125 805.875 C195.50531372 804.74735229 195.50531372 804.74735229 195.89331055 803.59692383 C198.61099467 795.40259928 200.31875689 787.60433216 201.125 779 C201.25455078 777.69482422 201.25455078 777.69482422 201.38671875 776.36328125 C201.59644607 774.24270501 201.79897842 772.12141921 202 770 C202.66 770 203.32 770 204 770 C204.01716195 717.94552688 204.03307667 665.89105355 204.04234314 613.83657837 C204.0424812 613.06303885 204.04261925 612.28949934 204.04276149 611.49251923 C204.04575616 594.6711962 204.04852609 577.84987315 204.05106533 561.02855005 C204.05231239 552.77635758 204.05360898 544.52416512 204.05493164 536.27197266 C204.0550624 535.45089079 204.05519316 534.62980893 204.05532788 533.7838458 C204.05957 507.29129034 204.0670667 480.79873705 204.07629722 454.3061829 C204.08578533 427.02399203 204.09189818 399.74180235 204.09391499 372.45960985 C204.09420304 368.58380753 204.09452867 364.70800522 204.09487724 360.83220291 C204.09494467 360.06957839 204.09501209 359.30695386 204.09508156 358.52121951 C204.09625168 346.36966506 204.10085777 334.21811436 204.10683203 322.06656143 C204.11279891 309.77471022 204.11494853 297.48286264 204.11350138 285.19101004 C204.1128195 278.5616947 204.11372968 271.93238786 204.11920547 265.30307388 C204.14629094 230.85745084 203.76867738 196.43729642 203 162 C201.39842538 161.1923353 199.79605946 160.3862396 198.19335938 159.58081055 C196.85501038 158.90721748 196.85501038 158.90721748 195.48962402 158.22001648 C192.8714261 156.93699359 190.23254698 155.82833321 187.5 154.8125 C184.63749485 153.74811913 183.18199395 153.18199395 181 151 C178.68234271 150.28072705 176.34904126 149.6090107 174 149 C174 148.34 174 147.68 174 147 C173.41347656 146.86078125 172.82695313 146.7215625 172.22265625 146.578125 C161.71190775 143.84422205 151.85697161 138.46254236 142.21875 133.59375 C138.13354782 131.57097999 133.99868329 129.66207194 129.85961914 127.75317383 C125.08389561 125.53763198 120.38172774 123.19512576 115.6875 120.8125 C109.90562415 117.88247648 104.09554093 115.22721688 98 113 C98 112.34 98 111.68 98 111 C97.21625 110.938125 96.4325 110.87625 95.625 110.8125 C91.40931611 109.86760534 88.07081612 108.16491666 84.26953125 106.15625 C81.93311799 104.89499162 81.93311799 104.89499162 79 104 C79 103.34 79 102.68 79 102 C78.33871094 101.90460938 77.67742187 101.80921875 76.99609375 101.7109375 C73.12336154 100.79198409 69.68416944 99.25256547 66.0625 97.625 C65.37220703 97.32078125 64.68191406 97.0165625 63.97070312 96.703125 C59.92371354 94.90787275 55.94482853 93.01254163 52 91 C52 90.34 52 89.68 52 89 C51.27111572 88.87778076 50.54223145 88.75556152 49.79125977 88.62963867 C47.04628941 88.01044174 44.86691405 87.14674887 42.33984375 85.92578125 C41.03430542 85.29953857 41.03430542 85.29953857 39.70239258 84.66064453 C38.33377075 83.99331299 38.33377075 83.99331299 36.9375 83.3125 C35.99737061 82.85987793 35.05724121 82.40725586 34.08862305 81.94091797 C29.13793098 79.55075202 24.21402642 77.11415637 19.3125 74.625 C14.32350048 72.09819736 9.23261901 69.96802043 4 68 C4 67.34 4 66.68 4 66 C2.02 65.505 2.02 65.505 0 65 C0 43.55 0 22.1 0 0 Z " fill="#07012D" transform="translate(1093,530)"/>
<path d="M0 0 C0.66 0 1.32 0 2 0 C6.53175374 6.00151171 10.10615927 12.82494791 13.79394531 19.36572266 C15.7074301 22.75713963 17.65865607 26.12056206 19.66015625 29.4609375 C20.11092529 30.21552246 20.56169434 30.97010742 21.02612305 31.74755859 C21.9044386 33.21422633 22.78719594 34.67824616 23.67504883 36.13916016 C25.9851698 40.00703383 27.75742386 43.6305015 29 48 C29.66 48 30.32 48 31 48 C31.44315552 48.78141357 31.44315552 48.78141357 31.89526367 49.57861328 C38.20644178 60.69490666 44.60154212 71.75448262 51.13037109 82.74438477 C55.44121366 90.01578653 59.63987734 97.34690276 63.80786133 104.70092773 C67.24247081 110.73910885 70.82384992 116.65705795 74.57421875 122.50390625 C75.84977632 124.73700567 76.55649824 126.48682336 77 129 C77.66 129 78.32 129 79 129 C79 240.87 79 352.74 79 468 C75.69406562 466.34703281 73.94380439 465.22297826 71.36328125 462.77734375 C70.70392578 462.15666016 70.04457031 461.53597656 69.36523438 460.89648438 C68.68783203 460.25001953 68.01042969 459.60355469 67.3125 458.9375 C66.62349609 458.28716797 65.93449219 457.63683594 65.22460938 456.96679688 C59.00544659 451.09008553 59.00544659 451.09008553 58.8758015 448.94578069 C58.87637108 447.57480044 58.87637108 447.57480044 58.87695217 446.17612362 C58.87496112 445.1256305 58.87297007 444.07513739 58.87091869 442.99281114 C58.87383153 441.82454855 58.87674437 440.65628595 58.87974548 439.45262146 C58.87846385 437.60761593 58.87846385 437.60761593 58.87715632 435.72533756 C58.87578807 432.29570215 58.87893576 428.8661231 58.88393438 425.43649447 C58.88823541 421.74390766 58.8867927 418.05132274 58.8860321 414.35873413 C58.88550665 407.95591757 58.88865571 401.55311117 58.89426994 395.15029716 C58.90238202 385.89279653 58.90499986 376.63530082 58.90625793 367.37779702 C58.90844892 352.35969067 58.91511025 337.34158973 58.92456055 322.32348633 C58.93373347 307.73103869 58.94081489 293.13859252 58.94506836 278.54614258 C58.94533108 277.64731963 58.94559381 276.74849669 58.94586449 275.82243668 C58.94716949 271.31350188 58.94843321 266.80456706 58.94967639 262.29563224 C58.96005044 224.86375097 58.97774412 187.43187599 59 150 C54.38 150 49.76 150 45 150 C45 244.71 45 339.42 45 437 C40.95099387 434.97549694 39.10933859 433.21975545 36 430 C33.3537853 427.45751576 30.67512159 424.94951907 28 422.4375 C26.88310791 421.38719604 26.88310791 421.38719604 25.74365234 420.31567383 C20.53090569 415.42015207 15.29346743 410.55231228 10.0234375 405.71850586 C6.09221949 402.10863906 6.09221949 402.10863906 4.3984375 400.11328125 C3.03819256 398.77609129 3.03819256 398.77609129 1.015625 399.1171875 C-1.31534181 400.13811483 -2.52642928 401.25919286 -4.25 403.125 C-6.60633505 405.65631042 -9.07299737 407.96337898 -11.68359375 410.2265625 C-16.17120343 414.11914147 -20.49781509 418.16761498 -24.8125 422.25 C-25.93688477 423.30960938 -25.93688477 423.30960938 -27.08398438 424.390625 C-30.92412059 427.97793534 -30.92412059 427.97793534 -34.6081543 431.72167969 C-36 433 -36 433 -38 433 C-38.33 433.99 -38.66 434.98 -39 436 C-39.66 436 -40.32 436 -41 436 C-41 341.62 -41 247.24 -41 150 C-45.62 150 -50.24 150 -55 150 C-54.99262566 151.54482087 -54.98525131 153.08964174 -54.9776535 154.68127537 C-54.80441333 191.34722993 -54.67248745 228.01312763 -54.59147736 264.67940605 C-54.58147164 269.191789 -54.57111707 273.70417108 -54.56054688 278.21655273 C-54.55844839 279.11489161 -54.55634991 280.01323048 -54.55418783 280.93879174 C-54.5193715 295.48711481 -54.4562919 310.03518514 -54.38277763 324.58335824 C-54.30798109 339.50971007 -54.26353313 354.43592948 -54.24729204 369.36246103 C-54.2363116 378.57405624 -54.20162514 387.78493711 -54.13666826 396.99631243 C-54.09439952 403.31182026 -54.08159467 409.62695849 -54.09198898 415.94259752 C-54.09711651 419.58740934 -54.08922647 423.23097257 -54.0463562 426.87556267 C-54.00020603 430.82786884 -54.01608987 434.77854806 -54.03796387 438.73109436 C-54.01466114 439.88187991 -53.9913584 441.03266545 -53.96734953 442.21832329 C-54.08149181 449.83172804 -54.08149181 449.83172804 -56.74591923 453.22067535 C-58.75119711 454.99094453 -60.78735237 456.50224841 -63 458 C-65.57568969 460.31954375 -68.14057882 462.65033613 -70.703125 464.984375 C-72.73954298 466.77143567 -74.82419864 468.38960941 -77 470 C-77.27507928 426.77185716 -77.48632456 383.54381589 -77.61278395 340.31497015 C-77.6277912 335.20346825 -77.64332319 330.09196808 -77.65917969 324.98046875 C-77.66232741 323.96292471 -77.66547514 322.94538066 -77.66871825 321.89700195 C-77.72083659 305.45293443 -77.81539662 289.00937386 -77.92583355 272.56560639 C-78.03832545 255.67411609 -78.10476275 238.78289003 -78.12906194 221.89104056 C-78.14547157 211.47996498 -78.19716415 201.0703226 -78.2949976 190.65968856 C-78.3587688 183.50628862 -78.37752584 176.35362204 -78.36201653 169.19995895 C-78.35438122 165.08115863 -78.36549973 160.96484958 -78.4304657 156.8465004 C-78.69940314 138.91536545 -77.95425484 124.67164339 -66.48363352 109.96696043 C-64.13769783 106.85678355 -62.22846798 103.5108117 -60.28515625 100.140625 C-59.56349852 98.93296471 -58.8399892 97.72640687 -58.11376953 96.52148438 C-57.7640509 95.93874756 -57.41433228 95.35601074 -57.05401611 94.75561523 C-55.64021803 92.40073145 -54.22531479 90.04651285 -52.81028748 87.69236755 C-44.30382669 73.54022108 -35.83126723 59.36912912 -27.42333984 45.15820312 C-23.31337689 38.21231377 -19.18635516 31.27755254 -15.0234375 24.36328125 C-13.5445638 21.90515335 -12.07066971 19.44441831 -10.6015625 16.98046875 C-10.19800537 16.30467773 -9.79444824 15.62888672 -9.37866211 14.93261719 C-8.61528799 13.65401639 -7.85298233 12.37477671 -7.09204102 11.09472656 C-6.07273346 9.38963401 -5.03660109 7.69463467 -4 6 C-3.46560303 5.12625732 -3.46560303 5.12625732 -2.92041016 4.23486328 C-2.00266505 2.78639444 -1.00742838 1.38759004 0 0 Z " fill="#08032E" transform="translate(997,316)"/>
<path d="M0 0 C1.27398924 0.95127469 2.54739494 1.90333093 3.82055664 2.85571289 C4.52974747 3.3858046 5.23893829 3.9158963 5.96961975 4.46205139 C8.51418031 6.38947527 10.98078265 8.39958378 13.4375 10.4375 C16.6548723 13.08787636 19.88329582 15.70878953 23.1875 18.25 C29.59824235 23.19904706 35.8466535 28.35066612 42.11962891 33.47216797 C43.72158825 34.77378593 45.33430688 36.06214362 46.94921875 37.34765625 C53.10947095 42.27401638 58.89136091 47.52824502 64.61157227 52.95288086 C67.59273385 55.777245 70.59716151 58.53653802 73.734375 61.1875 C77.59315412 64.4620578 80.78524926 68.09943577 84 72 C84.60070312 72.72445313 85.20140625 73.44890625 85.8203125 74.1953125 C92.42012514 82.39507971 96.88179329 91.34987384 101 101 C101.30196289 101.67635498 101.60392578 102.35270996 101.91503906 103.04956055 C104.81973157 109.84471682 106.56614176 116.76776206 108.18261719 123.9675293 C108.62394512 125.93280252 109.07652816 127.89520893 109.53125 129.85742188 C113.96688821 149.23880564 116.32057262 167.99824879 116.265625 187.859375 C116.26697856 189.62323052 116.26892477 191.38708567 116.27142334 193.15093994 C116.27434529 196.82169192 116.27017476 200.49234554 116.26074219 204.16308594 C116.24938188 208.80336561 116.25609364 213.44341514 116.26761627 218.08368683 C116.36412217 263.711246 116.36412217 263.711246 112 280 C111.34 280 110.68 280 110 280 C109.9175 280.5775 109.835 281.155 109.75 281.75 C108.67422195 284.97733416 107.8744164 286.0837224 105 288 C99.90959198 288.71375521 95.49374128 288.70293707 90.8125 286.5 C90.214375 286.005 89.61625 285.51 89 285 C89.3403125 285.49886719 89.680625 285.99773437 90.03125 286.51171875 C91.70758792 288.99501721 93.35727474 291.49432413 95 294 C95.67289063 295.02480469 96.34578125 296.04960938 97.0390625 297.10546875 C101.36655948 303.88845559 104.63515525 310.31958078 107 318 C107.34804688 319.06347656 107.69609375 320.12695312 108.0546875 321.22265625 C110.15061382 327.7628643 111.83921396 334.23397687 113 341 C113.26103516 342.45212891 113.26103516 342.45212891 113.52734375 343.93359375 C115.65689477 356.13576564 116.14165395 368.02376476 116.11352539 380.38330078 C116.11324291 382.12859597 116.11340244 383.87389128 116.1139679 385.6191864 C116.11425351 390.3312644 116.10839505 395.04331668 116.10139394 399.75538874 C116.09512099 404.68945337 116.09455349 409.62351866 116.09336853 414.55758667 C116.09026681 423.88936668 116.08206909 433.2211349 116.07201904 442.55290973 C116.06082185 453.18171652 116.05533838 463.81052389 116.05032361 474.43933511 C116.03988547 496.29289664 116.02230854 518.14644757 116 540 C113.19644668 538.63636738 110.86883539 537.22878606 108.4609375 535.2421875 C107.80311279 534.70303711 107.14528809 534.16388672 106.4675293 533.60839844 C105.43172729 532.75036621 105.43172729 532.75036621 104.375 531.875 C102.93122663 530.68981534 101.48721683 529.50491864 100.04296875 528.3203125 C99.34606934 527.74700195 98.64916992 527.17369141 97.93115234 526.58300781 C95.53332189 524.61745374 93.11387942 522.68016334 90.6875 520.75 C86.32715478 517.27787325 82.02714343 513.7357321 77.73828125 510.17578125 C75.01742716 507.82545826 75.01742716 507.82545826 71.38327026 506.40386963 C68.55044967 504.3528798 68.04688782 503.2349687 67.35188675 499.75211334 C67.00411309 495.29291205 67.07974284 490.83119579 67.12939453 486.36230469 C67.12314167 484.63546418 67.11380169 482.90863251 67.10160828 481.18182373 C67.07711747 476.49069051 67.09553288 471.80057843 67.12124491 467.10948849 C67.14062731 462.1872875 67.11965143 457.26526485 67.10275269 452.34307861 C67.07664014 443.00293088 67.08526842 433.66316071 67.10702598 424.3230145 C67.13720025 410.66949642 67.11323571 397.01605451 67.09202385 383.36253738 C67.08897596 381.33684545 67.08596019 379.31115346 67.08297729 377.28546143 C67.08147639 376.29498534 67.07997549 375.30450926 67.0784291 374.28401875 C67.07069738 368.44054335 67.0719573 362.59715833 67.08175969 356.75368643 C67.08754613 353.09273178 67.08968082 349.43177914 67.09145546 345.77082062 C67.09326683 344.09121916 67.09681536 342.41161838 67.10237312 340.73202515 C67.12950126 332.41349465 67.05587722 324.10398469 66.68161011 315.79278564 C66.65949844 315.10949464 66.63738678 314.42620363 66.61460507 313.72220683 C66.24175356 306.80026831 63.4834146 301.87826214 60 296 C59.505 294.515 59.505 294.515 59 293 C58.01 292.67 57.02 292.34 56 292 C54.68 290.68 53.36 289.36 52 288 C52 354 52 420 52 488 C47.64869637 486.25947855 45.96972664 485.34739048 42.75 482.3125 C38.34296248 478.27452473 33.74223856 474.63235294 29 471 C21.01533202 464.81126046 13.13959225 458.51995285 5.42578125 451.99609375 C2.97161958 449.90859943 2.97161958 449.90859943 0 448 C-0.29793973 445.50435586 -0.39674009 443.25572033 -0.36914349 440.75732231 C-0.37260502 439.99862321 -0.37606655 439.23992411 -0.37963298 438.45823413 C-0.38764004 435.88918879 -0.37406065 433.32069573 -0.36076355 430.75167847 C-0.36207049 428.90204044 -0.36469485 427.05240295 -0.36853105 425.20276845 C-0.37526984 420.0993117 -0.36319692 414.99604222 -0.34819686 409.89260936 C-0.33528945 404.39702386 -0.3396222 398.90144966 -0.34190369 393.40585327 C-0.34347979 383.87746537 -0.33403549 374.3491389 -0.31719017 364.82076645 C-0.29285023 351.04420264 -0.28500004 337.26766865 -0.2812262 323.49108566 C-0.27465384 301.14166443 -0.25469712 278.79227314 -0.22631836 256.44287109 C-0.1987763 234.72737804 -0.17751996 213.01189374 -0.16479492 191.29638672 C-0.16440034 190.62731272 -0.16400576 189.95823873 -0.16359923 189.26888976 C-0.15964375 182.5499259 -0.1558163 175.83096197 -0.15208265 169.11199798 C-0.12074613 112.74130894 -0.06779518 56.37065622 0 0 Z " fill="#875C01" transform="translate(797,978)"/>
<path d="M0 0 C0.37261005 11.34395887 0.65593542 22.68643723 0.82899475 34.03529453 C0.91211064 39.30691398 1.02457691 44.57431491 1.20703125 49.84350586 C1.38238795 54.94029732 1.47683926 60.0330654 1.51803589 65.13264275 C1.54734204 67.06627685 1.60457939 68.99971838 1.69168091 70.93161201 C2.05399479 79.30980654 2.37356353 86.77788893 -3.38720703 93.38815308 C-6.66955569 96.66598121 -10.18246501 99.56576277 -13.87722778 102.36453056 C-19.53559655 106.72396636 -24.75682817 111.65576516 -30 116.5 C-42.48814229 127.99209486 -42.48814229 127.99209486 -47 131 C-47.31605008 133.74845403 -47.4373894 136.27665154 -47.43237305 139.02978516 C-47.4425647 139.85913071 -47.45275635 140.68847626 -47.46325684 141.54295349 C-47.49351716 144.29172404 -47.50267251 147.0401469 -47.51171875 149.7890625 C-47.5285558 151.69193695 -47.54670471 153.59480022 -47.56611633 155.49765015 C-47.61372834 160.51176457 -47.64346511 165.52583365 -47.66955566 170.5401001 C-47.69930484 175.65442871 -47.74585443 180.76860087 -47.79101562 185.8828125 C-47.87717608 195.92179336 -47.94446452 205.96080631 -48 216 C-47.34 216 -46.68 216 -46 216 C-45.74089844 215.40445312 -45.48179688 214.80890625 -45.21484375 214.1953125 C-43.90209487 211.82307818 -42.64218073 210.59581691 -40.5625 208.875 C-37.14263089 205.9826969 -33.80439086 203.02404616 -30.5 200 C-26.72211892 196.55469717 -22.91686859 193.15049393 -19.05078125 189.8046875 C-17.46861521 188.41238139 -15.90743905 186.99619954 -14.35546875 185.5703125 C-13.45441406 184.74273438 -12.55335937 183.91515625 -11.625 183.0625 C-10.37589844 181.90427734 -10.37589844 181.90427734 -9.1015625 180.72265625 C-7 179 -7 179 -5 179 C-4.8144278 189.96143632 -4.6723862 200.92249747 -4.58550262 211.8851862 C-4.54379648 216.97602483 -4.48725337 222.06578686 -4.39648438 227.15600586 C-4.30939274 232.07090729 -4.26169146 236.98477507 -4.24098206 241.90038872 C-4.22622946 243.77317005 -4.19741901 245.6458964 -4.15415955 247.51823616 C-3.82842318 262.20419808 -3.82842318 262.20419808 -6.72807312 266.64880371 C-8.740756 268.426101 -10.66283432 269.69741457 -13 271 C-14.03372896 271.89394037 -15.04275692 272.81759397 -16.01953125 273.7734375 C-21.6927922 279.05790154 -27.47755211 284.06858657 -33.5234375 288.9296875 C-36.35343823 291.29546098 -38.93395526 293.81242322 -41.46484375 296.4921875 C-43 298 -43 298 -45.06939888 299.12870979 C-47.33375191 300.94124063 -47.33375191 300.94124063 -47.46870232 304.28451347 C-47.47465323 305.67255873 -47.45823892 307.06080126 -47.42477417 308.44845581 C-47.4223975 309.21363813 -47.42002083 309.97882044 -47.41757214 310.7671901 C-47.40505573 313.3399258 -47.36413513 315.91144915 -47.32373047 318.48388672 C-47.30954919 320.32526807 -47.29732321 322.16666538 -47.28691101 324.0080719 C-47.26155177 327.97950167 -47.22483996 331.95061221 -47.18020248 335.92187119 C-47.11217905 342.20978212 -47.08508486 348.49744697 -47.06668091 354.78567505 C-47.00971747 372.66917646 -46.9278848 390.5519501 -46.73632812 408.43457031 C-46.63091085 418.30708223 -46.57576947 428.17854154 -46.57640946 438.05163205 C-46.57456596 443.27405191 -46.54688204 448.49347115 -46.45684433 453.71517563 C-46.37211689 458.63612653 -46.35331245 463.55306026 -46.38326454 468.47460747 C-46.38264935 470.27216548 -46.35836467 472.0699101 -46.30758095 473.86675072 C-45.92682696 488.07005472 -45.92682696 488.07005472 -51.01654434 493.8774147 C-53.89847817 496.73933709 -56.97412866 499.27195101 -60.23404336 501.68990159 C-62.88321307 503.65522336 -65.3967048 505.77200389 -67.9375 507.875 C-69.26007813 508.93460938 -69.26007813 508.93460938 -70.609375 510.015625 C-73.36734376 512.30491933 -75.85338026 514.76333857 -78.34375 517.3359375 C-80.68295431 519.6861758 -83.1888437 521.82009049 -85.69921875 523.984375 C-88.50773202 526.44480428 -91.25455107 528.96982166 -94 531.5 C-97.99233945 535.17471755 -102.01098111 538.81139455 -106.11328125 542.36328125 C-107.49321967 543.56037068 -108.86443041 544.76754154 -110.23046875 545.98046875 C-110.95878906 546.62628906 -111.68710938 547.27210938 -112.4375 547.9375 C-113.42556641 548.81728516 -113.42556641 548.81728516 -114.43359375 549.71484375 C-116 551 -116 551 -117 551 C-117.18302271 494.04666905 -117.32403245 437.09336732 -117.40852264 380.13980022 C-117.4185014 373.41929012 -117.42887382 366.69878066 -117.43945312 359.97827148 C-117.44102223 358.97511016 -117.44102223 358.97511016 -117.44262304 357.95168296 C-117.4767186 336.27171155 -117.53681247 314.59190685 -117.61037777 292.91203646 C-117.68797221 270.00317453 -117.73596566 247.09437909 -117.75270796 224.18538338 C-117.76369705 210.45959954 -117.79843195 196.73429431 -117.86333174 183.00865776 C-117.90554768 173.6025328 -117.9184171 164.19665605 -117.90801102 154.79044317 C-117.90287565 149.35950786 -117.91086835 143.92941011 -117.9536438 138.49862289 C-117.99250818 133.52819127 -117.99458698 128.55916219 -117.96719116 123.58866668 C-117.96380425 121.78906423 -117.97401264 119.9893751 -117.99906546 118.18994384 C-118.17565824 104.72494366 -118.17565824 104.72494366 -115.25682735 100.44239056 C-113.25222546 98.66439863 -111.31087572 97.34039754 -109 96 C-107.16130852 94.3392464 -105.3273443 92.67323092 -103.5 91 C-99.71065874 87.54424587 -95.88916302 84.1347711 -92.01953125 80.76953125 C-87.97333617 77.22421912 -83.99316378 73.60477095 -80 70 C-78.33359149 68.49971321 -76.66692647 66.99971128 -75 65.5 C-74.175 64.7575 -73.35 64.015 -72.5 63.25 C-65 56.5 -65 56.5 -62.484375 54.23828125 C-60.86666032 52.78081189 -59.25191619 51.32003641 -57.640625 49.85546875 C-53.52267683 46.12105497 -49.36535981 42.44807571 -45.12329102 38.85595703 C-38.47500173 33.22426833 -32.08971179 27.37331895 -25.77124023 21.37451172 C-21.12576673 16.98847625 -16.34906663 12.91399942 -11.34375 8.94140625 C-8.46082997 6.55338749 -5.88331744 3.95731783 -3.33984375 1.21484375 C-2 0 -2 0 0 0 Z " fill="#875C01" transform="translate(1204,977)"/>
<path d="M0 0 C1.43538857 1.38563156 1.43538857 1.38563156 2.99624634 3.35223389 C7.1350606 8.28330592 11.74863437 12.571439 16.48702621 16.91986084 C19.28183654 19.48612434 22.06251007 22.06762572 24.84359741 24.64874268 C25.43432187 25.19667056 26.02504632 25.74459844 26.63367152 26.30913019 C34.95223748 34.03940282 43.1408798 41.90702007 51.33206749 49.77177811 C57.97566734 56.14314435 64.65912309 62.45880377 71.45751953 68.66503906 C120.89695888 113.87969741 120.89695888 113.87969741 122.98302841 138.18333817 C123.3493726 147.75827863 122.30949039 157.12029683 120.75712585 166.55291748 C119.48879972 174.63772175 120.05030912 182.62026845 120.5625 190.75 C121.05408973 202.39663358 121.05408973 202.39663358 118.46044922 206.34179688 C116.4136481 208.44318603 114.3099047 210.19015924 112 212 C105.60083839 217.34336168 99.73653552 223.16116102 93.8828125 229.08984375 C92.93533882 230.04427892 91.98748626 230.99833811 91.03927612 231.95204163 C87.0485082 235.96705165 83.06373221 239.98797236 79.08300781 244.01293945 C76.63357292 246.48907912 74.17934973 248.96038722 71.7220726 251.42874336 C70.33676614 252.82328047 68.95705712 254.22337073 67.5774231 255.6235199 C66.74250336 256.46181839 65.90758362 257.30011688 65.04736328 258.16381836 C64.31204376 258.90659531 63.57672424 259.64937225 62.81912231 260.41465759 C61 262 61 262 59 262 C58.99857498 261.02138504 58.99714996 260.04277008 58.99568176 259.03450012 C58.97900721 249.80880795 58.93621981 240.58355661 58.86790943 231.35809803 C58.83362858 226.615214 58.80852776 221.87265246 58.80444336 217.12963867 C58.80016273 212.55169582 58.77171995 207.97448057 58.72656822 203.39676476 C58.71358561 201.65092902 58.70928826 199.90500624 58.71384621 198.15912819 C58.71874704 195.71181453 58.6926864 193.26663167 58.65942383 190.81958008 C58.66804947 190.09884811 58.67667511 189.37811615 58.68556213 188.63554382 C58.59853862 184.8125285 58.14955021 183.17823154 55.66142273 180.21292114 C54.34401848 179.11752518 54.34401848 179.11752518 53 178 C52.43684082 177.43906143 51.87368164 176.87812286 51.29345703 176.30018616 C50.53331299 175.54456642 50.53331299 175.54456642 49.7578125 174.77368164 C46.5294939 171.56320228 43.30426093 168.34964227 40.08007812 165.13500977 C38.69425426 163.75422822 37.30753608 162.37434366 35.91992188 160.99536133 C33.90255232 158.99018204 31.88848386 156.98173639 29.875 154.97265625 C29.26027832 154.36309586 28.64555664 153.75353546 28.01220703 153.12550354 C24.45252238 149.56627919 21.18347319 145.89874611 18 142 C16.35558971 140.31137027 14.68624367 138.64685696 13 137 C11.74212492 135.74485573 10.48573417 134.48822293 9.23046875 133.23046875 C8.56982422 132.56982422 7.90917969 131.90917969 7.22851562 131.22851562 C4.15234375 128.15234375 1.07617188 125.07617188 -2 122 C-5.15728605 123.38412239 -7.14643811 124.95762832 -9.46875 127.4921875 C-10.11658447 128.19158447 -10.76441895 128.89098145 -11.43188477 129.61157227 C-12.11436279 130.35850342 -12.79684082 131.10543457 -13.5 131.875 C-14.93463378 133.42462662 -16.37084424 134.97279498 -17.80859375 136.51953125 C-18.87182861 137.66349365 -18.87182861 137.66349365 -19.95654297 138.83056641 C-23.62099727 142.72092971 -27.43121716 146.45748788 -31.25390625 150.19140625 C-33.3712179 152.35690707 -35.35482719 154.53699558 -37.328125 156.828125 C-41.07961447 161.16046387 -45.09877628 165.17555983 -49.1875 169.1875 C-54.5065397 174.37659103 -54.5065397 174.37659103 -59.36328125 179.98828125 C-59.90339844 180.65214844 -60.44351563 181.31601562 -61 182 C-61.66 182 -62.32 182 -63 182 C-63 208.4 -63 234.8 -63 262 C-66.37703639 260.31148181 -67.89006947 259.34574053 -70.390625 256.76953125 C-71.01324219 256.1353125 -71.63585937 255.50109375 -72.27734375 254.84765625 C-73.25380859 253.84025391 -73.25380859 253.84025391 -74.25 252.8125 C-75.60749038 251.43173836 -76.96684085 250.05280279 -78.328125 248.67578125 C-79.23933105 247.7463269 -79.23933105 247.7463269 -80.16894531 246.7980957 C-82.60386631 244.40700329 -85.17195354 242.19730228 -87.78125 240 C-91.85257948 236.3300692 -95.6469488 232.37112093 -99.50292969 228.47753906 C-103.22052072 224.73760898 -106.98677666 221.15429805 -111.0234375 217.7578125 C-114.27013534 214.870433 -117.28900049 211.75169362 -120.32128906 208.64160156 C-122.89966418 205.97957692 -122.89966418 205.97957692 -126 204 C-126.49098068 193.54297577 -126.86181545 183.08877237 -127.08805561 172.62248707 C-127.19677261 167.75934694 -127.34354218 162.90419351 -127.58422852 158.0456543 C-129.28813719 122.7557879 -129.28813719 122.7557879 -119.91859341 112.05844784 C-115.48957985 107.42989981 -110.53716074 103.23916638 -105 100 C-104.34 100 -103.68 100 -103 100 C-102.505 98.515 -102.505 98.515 -102 97 C-100.50802612 95.53050232 -100.50802612 95.53050232 -98.56982422 93.94311523 C-93.38728251 89.542438 -88.65708157 84.74556211 -83.8828125 79.91015625 C-82.93533882 78.95572108 -81.98748626 78.00166189 -81.03927612 77.04795837 C-77.0485082 73.03294835 -73.06373221 69.01202764 -69.08300781 64.98706055 C-66.63357292 62.51092088 -64.17934973 60.03961278 -61.7220726 57.57125664 C-60.33676614 56.17671953 -58.95705712 54.77662927 -57.5774231 53.3764801 C-56.74250336 52.53818161 -55.90758362 51.69988312 -55.04736328 50.83618164 C-54.31204376 50.09340469 -53.57672424 49.35062775 -52.81912231 48.58534241 C-51 47 -51 47 -49 47 C-49 46.34 -49 45.68 -49 45 C-47.56599426 43.58970642 -47.56599426 43.58970642 -45.56176758 41.93725586 C-40.78183382 37.87003236 -36.40605447 33.48028689 -32.01171875 29.00390625 C-30.31994511 27.29464108 -28.62787949 25.58566486 -26.93554688 23.87695312 C-24.29449453 21.20476853 -21.65586456 18.53031397 -19.0222168 15.85083008 C-16.46285708 13.2493624 -13.89432832 10.65724798 -11.32421875 8.06640625 C-10.53359543 7.25716202 -9.74297211 6.44791779 -8.9283905 5.614151 C-7.82627983 4.5068589 -7.82627983 4.5068589 -6.7019043 3.37719727 C-6.05762985 2.72324478 -5.41335541 2.0692923 -4.7495575 1.39552307 C-3 0 -3 0 0 0 Z " fill="#07012C" transform="translate(1001,724)"/>
<path d="M0 0 C9.755074 4.50110968 17.29209164 14.20132602 24.75 21.75 C26.97102858 23.99771905 29.19542571 26.24202673 31.421875 28.484375 C31.92297791 28.99377625 32.42408081 29.50317749 32.94036865 30.02801514 C34.91451705 32.01590957 36.73200361 33.83578558 39.12976074 35.30500793 C41 37 41 37 41.51898193 39.54820251 C41.52786438 40.56991043 41.53674683 41.59161835 41.54589844 42.64428711 C41.56554657 43.8103801 41.5851947 44.97647308 41.60543823 46.17790222 C41.60673737 47.44821793 41.6080365 48.71853363 41.609375 50.02734375 C41.62499659 51.36092726 41.64237502 52.69449121 41.66140747 54.0280304 C41.70696801 57.59465732 41.7277543 61.16098076 41.74105072 64.7278595 C41.75593252 68.40228226 41.78330153 72.07661689 41.80908203 75.75097656 C41.83936015 80.12329255 41.8676737 84.49556696 41.88613892 88.86795044 C41.9258912 96.86706884 42.11237958 104.8416814 42.5078125 112.83203125 C42.60266926 115.24367458 42.69173906 117.65542979 42.77746582 120.06741333 C42.84147766 121.49984859 42.92792345 122.93149286 43.03894043 124.36105347 C43.81562953 134.50392373 43.81562953 134.50392373 40.74630737 138.72354126 C37.65350086 142.13461692 34.19721952 145.0261246 30.54296875 147.81463623 C28.54843368 149.3469094 26.68093444 151.00506817 24.8125 152.6875 C24.20148438 153.21601562 23.59046875 153.74453125 22.9609375 154.2890625 C20.5950409 156.35333085 18.26679665 158.45703966 15.9375 160.5625 C14.67873047 161.68978516 14.67873047 161.68978516 13.39453125 162.83984375 C11.89752103 164.19032769 10.41335855 165.5553539 8.94921875 166.94140625 C7.125 168.625 7.125 168.625 4 171 C0.10293075 170.80794731 -1.96056852 168.46580446 -4.6875 165.875 C-7.80965107 162.98041096 -10.92297072 160.20154255 -14.3125 157.625 C-18.72519603 154.2685344 -22.9367171 150.70427478 -27.13208008 147.08251953 C-27.64665771 146.64149902 -28.16123535 146.20047852 -28.69140625 145.74609375 C-29.18377274 145.31502319 -29.67613922 144.88395264 -30.1834259 144.43981934 C-31.96957215 142.94652007 -31.96957215 142.94652007 -34.04440308 141.85067749 C-37.432943 139.83577334 -39.63356995 138.32982401 -40.70903015 134.42683411 C-40.9454169 131.1673539 -40.92435524 127.99690789 -40.81640625 124.73046875 C-40.80836472 123.51707825 -40.80032318 122.30368774 -40.79203796 121.05352783 C-40.76196941 117.77442671 -40.69647066 114.49860121 -40.61164856 111.22053146 C-40.52950357 107.8226019 -40.48410367 104.42416832 -40.43457031 101.02563477 C-40.37196189 96.92506549 -40.30312195 92.8248723 -40.21151733 88.72483826 C-40.03174212 80.57503484 -40.02219141 72.44706945 -40.16796875 64.296875 C-40.19269795 61.53422205 -40.21021497 58.77167462 -40.22286987 56.00894165 C-40.24073932 54.31524381 -40.27764085 52.62162339 -40.33499146 50.92880249 C-40.75943134 37.61813334 -40.75943134 37.61813334 -36.52758789 32.75073242 C-33.58156842 29.85066722 -30.32343347 27.4502227 -27 25 C-25.54927465 23.68968227 -24.11752252 22.35772104 -22.71484375 20.99609375 C-22.08707031 20.40513916 -21.45929687 19.81418457 -20.8125 19.20532227 C-20.19375 18.62194092 -19.575 18.03855957 -18.9375 17.4375 C-12.68466903 11.5573992 -6.37861508 5.74345637 0 0 Z " fill="#07012C" transform="translate(997,867)"/>
<path d="M0 0 C5.21061154 2.41885125 7.68667315 6.42407044 11 11 C11.598125 11.78375 12.19625 12.5675 12.8125 13.375 C16.9241091 22.46382013 16.29705089 32.96931424 16.265625 42.73828125 C16.26697571 44.23276329 16.2689196 45.72724491 16.27142334 47.22172546 C16.27435098 50.3321863 16.27015069 53.44253127 16.26074219 56.55297852 C16.249299 60.52836127 16.25595262 64.50347533 16.26788712 68.47884846 C16.27512742 71.55614738 16.27280869 74.63338295 16.26763153 77.71068382 C16.26630362 79.17662781 16.26791247 80.64257766 16.27259064 82.10851479 C16.2776974 84.15623803 16.26989034 86.20352945 16.25878906 88.2512207 C16.25640228 89.99348686 16.25640228 89.99348686 16.25396729 91.77095032 C15.87781285 96.55354011 14.65418007 100.01872989 12 104 C9.375 104.1875 9.375 104.1875 7 104 C7 103.34 7 102.68 7 102 C6.21625 101.87625 5.4325 101.7525 4.625 101.625 C2 101 2 101 0 99 C-0.24609566 97.20778465 -0.24609566 97.20778465 -0.24050903 95.00106812 C-0.24325836 94.16531754 -0.24600769 93.32956696 -0.24884033 92.4684906 C-0.24164978 91.54995804 -0.23445923 90.63142548 -0.22705078 89.68505859 C-0.22734283 88.71916306 -0.22763489 87.75326752 -0.22793579 86.75810242 C-0.22653872 83.55479045 -0.21095974 80.351709 -0.1953125 77.1484375 C-0.19158371 74.93169278 -0.18873611 72.71494642 -0.18673706 70.49819946 C-0.17909004 64.65543084 -0.15943237 58.81276118 -0.1373291 52.97003174 C-0.11689368 47.01128478 -0.10774028 41.05252188 -0.09765625 35.09375 C-0.07618749 23.39578978 -0.04203867 11.69790311 0 0 Z " fill="#F8F4EE" transform="translate(849,1097)"/>
<path d="M0 0 C5.02092404 1.42259514 8.66757001 3.64004819 11.89453125 7.71484375 C14.52674056 13.15598314 14.01885737 19.78390982 12.2265625 25.44140625 C11.28315767 27.43010363 10.24933883 29.19017012 9 31 C8.34 31.969375 7.68 32.93875 7 33.9375 C4.041135 36.98882953 0.83027809 37.19467287 -3.3125 37.4375 C-7.90107164 37.36957706 -10.27957948 36.03292052 -13.4921875 32.8203125 C-18.44658287 26.83909944 -19.67019928 21.54080796 -19.38671875 13.76953125 C-18.85381435 9.95307451 -17.56815235 7.84579045 -15 5 C-14.29875 4.05125 -13.5975 3.1025 -12.875 2.125 C-8.65478669 -0.9942881 -5.07631635 -0.70813817 0 0 Z " fill="#F6F4F6" transform="translate(999,395)"/>
<path d="M0 0 C0 0.99 0 1.98 0 3 C-2.1572113 4.97964478 -2.1572113 4.97964478 -5.21655273 7.28759766 C-6.36769026 8.17649793 -7.51679244 9.06803846 -8.66415405 9.96180725 C-9.27815441 10.43895739 -9.89215477 10.91610752 -10.5247612 11.40771675 C-44.50099825 37.91731263 -44.50099825 37.91731263 -60.55534363 76.18945312 C-61.40528041 85.4925872 -61.43935378 94.73495447 -61.0625 104.0625 C-61.00724718 105.44248547 -61.00724718 105.44248547 -60.95087814 106.85034943 C-60.44817939 118.29076427 -59.4583381 129.64242504 -58 141 C-58.33 141 -58.66 141 -59 141 C-59.49098068 130.54297577 -59.86181545 120.08877237 -60.08805561 109.62248707 C-60.19677261 104.75934694 -60.34354218 99.90419351 -60.58422852 95.0456543 C-62.28813719 59.7557879 -62.28813719 59.7557879 -52.91859341 49.05844784 C-48.48957985 44.42989981 -43.53716074 40.23916638 -38 37 C-37.34 37 -36.68 37 -36 37 C-35.67 36.01 -35.34 35.02 -35 34 C-33.64453125 32.66577148 -33.64453125 32.66577148 -31.8125 31.18359375 C-25.16323225 25.54210565 -19.13981387 19.24500741 -13 13.0625 C-11.7359115 11.79338627 -10.47159044 10.52450411 -9.20703125 9.25585938 C-6.13533276 6.1732368 -3.06679992 3.08749572 0 0 Z " fill="#3D375A" transform="translate(934,787)"/>
<path d="M0 0 C0.66 0.33 1.32 0.66 2 1 C-0.61691164 3.67470955 -3.24481708 6.33834481 -5.875 9 C-6.62136719 9.763125 -7.36773438 10.52625 -8.13671875 11.3125 C-8.85214844 12.034375 -9.56757812 12.75625 -10.3046875 13.5 C-11.2944458 14.50546875 -11.2944458 14.50546875 -12.30419922 15.53125 C-14 17 -14 17 -16 17 C-15.99777939 17.85459305 -15.99555878 18.7091861 -15.99327087 19.5896759 C-15.97294988 27.77815552 -15.95786782 35.96662626 -15.94818783 44.15512562 C-15.94304348 48.36148496 -15.93610673 52.5678229 -15.92456055 56.77416992 C-15.87079798 76.87692072 -16.02604184 96.91577493 -17 117 C-17.33 117 -17.66 117 -18 117 C-18.03997877 105.10618021 -18.07828875 93.21246636 -18.04394531 81.31860352 C-18.04202242 80.63593005 -18.04009953 79.95325659 -18.03811836 79.24989605 C-18.03012873 76.48546483 -18.02191608 73.72103564 -18.01224899 70.95660973 C-17.98546751 63.04444128 -18.0074346 55.13681222 -18.15135193 47.22566223 C-18.21200838 43.48462649 -18.22717956 39.74437992 -18.23092651 36.00289917 C-18.24349975 34.31178874 -18.27697491 32.62068616 -18.33279419 30.93045044 C-18.75930289 17.59597366 -18.75930289 17.59597366 -14.41992188 12.66064453 C-11.50702921 9.80593089 -8.27089813 7.43131904 -5 5 C-3.26762413 3.38549792 -1.63846157 1.71181704 0 0 Z " fill="#736E87" transform="translate(975,887)"/>
<path d="M0 0 C-1.5391801 3.66752005 -3.75485452 5.98580573 -6.5703125 8.765625 C-7.46621094 9.65507813 -8.36210938 10.54453125 -9.28515625 11.4609375 C-10.22230469 12.38132812 -11.15945313 13.30171875 -12.125 14.25 C-13.07988637 15.19484856 -14.03431859 16.14015633 -14.98828125 17.0859375 C-17.32109087 19.39518338 -19.65844086 21.69963203 -22 24 C-22.66 23.67 -23.32 23.34 -24 23 C-22.82244141 21.83984375 -22.82244141 21.83984375 -21.62109375 20.65625 C-16.36814071 15.45682172 -11.17750921 10.27109869 -6.40234375 4.62109375 C-2.40481928 0 -2.40481928 0 0 0 Z " fill="#D7D5DC" transform="translate(999,845)"/>
<path d="M0 0 C1.32 0.66 2.64 1.32 4 2 C3.01 2.495 3.01 2.495 2 3 C2 8.94 2 14.88 2 21 C0.68 20.34 -0.64 19.68 -2 19 C-1.34 18.67 -0.68 18.34 0 18 C0 12.06 0 6.12 0 0 Z " fill="#E2DFE5" transform="translate(984,1026)"/>
<path d="M0 0 C0.66 0.33 1.32 0.66 2 1 C-0.61691164 3.67470955 -3.24481708 6.33834481 -5.875 9 C-6.62136719 9.763125 -7.36773438 10.52625 -8.13671875 11.3125 C-8.85214844 12.034375 -9.56757812 12.75625 -10.3046875 13.5 C-11.2944458 14.50546875 -11.2944458 14.50546875 -12.30419922 15.53125 C-14 17 -14 17 -16 17 C-14.88559348 13.65678045 -14.02527657 12.93980381 -11.375 10.75 C-7.36917659 7.35878848 -3.6577926 3.76066802 0 0 Z " fill="#363054" transform="translate(975,887)"/>
<path d="M0 0 C0 3 0 3 -1.75 5.04296875 C-2.4925 5.75066406 -3.235 6.45835938 -4 7.1875 C-4.7425 7.90292969 -5.485 8.61835937 -6.25 9.35546875 C-6.8275 9.89816406 -7.405 10.44085937 -8 11 C-8.33 10.01 -8.66 9.02 -9 8 C-6.03 5.36 -3.06 2.72 0 0 Z " fill="#EAE1D1" transform="translate(1166,1269)"/>
<path d="M0 0 C0.66 0.33 1.32 0.66 2 1 C1.07038578 2.15224028 0.1309875 3.29659176 -0.8125 4.4375 C-1.59560547 5.39462891 -1.59560547 5.39462891 -2.39453125 6.37109375 C-4 8 -4 8 -7 9 C-5.44499019 5.18315774 -2.96404505 2.80804268 0 0 Z " fill="#BEBBC7" transform="translate(989,395)"/>
</svg>
